<svg viewBox="0 0 1920 1697" fill="none" xmlns="http://www.w3.org/2000/svg">
<path d="M524 520L691 423L916.5 553.5L919.5 640.5L904.5 631.5L847 663V729L791.5 696L735.5 729V759.5L691 734.5L636.5 766L524 702V520Z" fill="white" fill-opacity="0.01"/>
<path d="M1127.5 759.5L906 631.5L848.5 664V727.5L790.5 695.5L737 727.5V986L961.5 1114L1127.5 1017.5V759.5Z" fill="white" fill-opacity="0.01"/>
<path d="M1125 454.5L1046 410L925 480.5V547L1089 639L1251.5 543V480.5L1167.5 431.5L1125 454.5Z" fill="white" fill-opacity="0.01"/>
<path d="M1607.5 400.5L1496.5 334L1455.5 356L1423.5 337L1276.5 420.5V595L1378.5 652.5L1406.5 636.5L1492.5 687V721.5L1594 777.5L1737.5 694.5V518L1638 461L1607.5 478V400.5Z" fill="white" fill-opacity="0.01"/>
</svg>
