<svg width="276" height="220" viewBox="0 0 276 220" fill="none" xmlns="http://www.w3.org/2000/svg">
<path d="M50 188L148.5 130.5V100" stroke="#ED3B45" stroke-dasharray="4 4"/>
<path d="M52.5 190L151 132.5V102" stroke="#FF8C68" stroke-dasharray="4 4"/>
<path d="M55.5 192L154 134.5V104" stroke="#17B45A" stroke-dasharray="4 4"/>
<rect y="0.499428" width="157.534" height="157.534" transform="matrix(0.866355 0.499428 -0.866355 0.499428 138.433 61.0732)" stroke="#189EE9" stroke-opacity="0.2"/>
<rect y="0.499967" width="46.3558" height="70.8501" rx="3.5" transform="matrix(0.866044 0.499967 -0.866044 0.499967 102.658 135.25)" fill="white" stroke="#189EE9"/>
<rect y="0.499967" width="46.3558" height="70.8501" rx="3.5" transform="matrix(0.866044 0.499967 -0.866044 0.499967 102.658 132.25)" fill="white" stroke="#189EE9"/>
<rect width="42.4569" height="60.4194" rx="4" transform="matrix(0.866044 0.499967 -0.866044 0.499967 102.225 134.449)" fill="white"/>
<rect y="0.499967" width="41.4569" height="59.4194" rx="3.5" transform="matrix(0.866044 0.499967 -0.866044 0.499967 102.658 134.699)" stroke="#189EE9" stroke-opacity="0.2"/>
<circle r="1.94944" transform="matrix(0.866044 0.499967 -0.866044 0.499967 64.7488 177.312)" fill="white" stroke="#189EE9"/>
<rect width="9.79775" height="9.79775" rx="4" transform="matrix(0.866044 0.499967 -0.866044 0.499967 106.468 148.328)" fill="#17B45A"/>
<path d="M104.347 152.003L104.347 153.636L110.711 153.636" stroke="white"/>
<rect y="0.499967" width="8.79775" height="8.79775" rx="3.5" transform="matrix(0.866044 0.499967 -0.866044 0.499967 94.8803 155.518)" fill="white" stroke="#17B45A"/>
<rect y="0.499967" width="8.79775" height="8.79775" rx="3.5" transform="matrix(0.866044 0.499967 -0.866044 0.499967 82.8595 162.458)" fill="white" stroke="#17B45A"/>
<path d="M110.011 80.5752L216.506 141.15C217.172 141.529 218 141.048 218 140.281V64.1541C218 63.4399 217.619 62.7799 217.001 62.4225L110.5 0.867212C109.834 0.481891 109 0.962987 109 1.733V78.8367C109 79.5558 109.386 80.2196 110.011 80.5752Z" fill="white" stroke="#189EE9"/>
<path d="M108.011 81.5752L214.506 142.15C215.172 142.529 216 142.048 216 141.281V65.1541C216 64.4399 215.619 63.7799 215.001 63.4225L108.5 1.86721C107.834 1.48189 107 1.96299 107 2.733V79.8367C107 80.5558 107.386 81.2196 108.011 81.5752Z" fill="white" stroke="#189EE9"/>
<path d="M117 69L203 118" stroke="#17B45A"/>
<path d="M117 57L203 106" stroke="#FF8C68"/>
<path d="M117 44L203 93" stroke="#ED3B45"/>
<path d="M199 115.714L121 70.7143V65L123.167 67.1429L130.028 65.7141L136.889 73.5713L145.194 70.7141L149.528 78.2141L161.083 73.5713L173.361 89.6427L180.5 88.5L186.361 97.1427L199 62V115.714Z" fill="#79AFFF" fill-opacity="0.5"/>
<path d="M50 188V184.5L58.5 179.5" stroke="#ED3B45"/>
<path d="M53 189.5V186L61.5 181" stroke="#FF8C68"/>
<path d="M56 191.5V188L64.5 183" stroke="#17B45A"/>
</svg>
