<svg width="276" height="219" viewBox="0 0 276 219" fill="none" xmlns="http://www.w3.org/2000/svg">
<rect y="0.499428" width="157.534" height="157.534" transform="matrix(0.866355 0.499428 -0.866355 0.499428 138.433 60.0732)" stroke="#189EE9" stroke-opacity="0.2"/>
<path d="M139 112V140L156.5 149.821M156.5 149.821L159.47 151.558C162.578 153.376 166.425 153.382 169.54 151.574L174.979 148.416C178.083 146.613 181.917 146.613 185.021 148.416L194.293 153.799M156.5 149.821L151.244 153.164C148.789 154.726 148.77 158.303 151.208 159.891L167.5 170.5" stroke="#17B45A"/>
<path d="M137 112V139.5L134.537 140.978C132.972 141.917 131.021 141.929 129.445 141.009L111 130.25M111 130.25L104.524 126.472C101.418 124.661 97.579 124.656 94.4687 126.459L89.4545 129.367C88.2416 130.07 86.7489 130.087 85.5204 129.411L78.1096 125.335M111 130.25L122.93 122.58C125.462 120.953 125.357 117.219 122.739 115.736L113.5 110.5M113.5 110.5L115.821 108.842C116.391 108.435 116.377 107.585 115.795 107.196L112.5 105M113.5 110.5L112.105 111.496C110.824 112.411 109.125 112.49 107.765 111.696L104.621 109.862" stroke="#FF8C68"/>
<circle r="4.39887" transform="matrix(0.866044 0.499967 -0.866044 0.499967 171.485 172.899)" stroke="#17B45A"/>
<circle r="4.39887" transform="matrix(0.866044 0.499967 -0.866044 0.499967 122.485 182.899)" stroke="#E2B104"/>
<circle r="2.47612" transform="matrix(0.866044 0.499967 -0.866044 0.499967 77.1549 154.976)" stroke="#E2B104"/>
<circle r="4.39887" transform="matrix(0.866044 0.499967 -0.866044 0.499967 74.4852 122.899)" stroke="#FF8C68"/>
<circle r="1.69587" transform="matrix(0.866044 0.499967 -0.866044 0.499967 102.803 109.196)" stroke="#FF8C68"/>
<circle r="1.69587" transform="matrix(0.866044 0.499967 -0.866044 0.499967 110.803 104.196)" stroke="#FF8C68"/>
<circle r="2.208" transform="matrix(0.866044 0.499967 -0.866044 0.499967 196.69 154.708)" stroke="#17B45A"/>
<circle r="2.208" transform="matrix(0.866044 0.499967 -0.866044 0.499967 171.691 107.708)" stroke="#79AFFF"/>
<circle r="3.11014" transform="matrix(0.866044 0.499967 -0.866044 0.499967 202.253 124.708)" stroke="#79AFFF"/>
<path d="M125.988 64.4073C132.622 60.583 143.378 60.583 150.012 64.4073L188.839 86.7899C189.886 87.3937 189.886 88.3727 188.839 88.9766L150.012 111.359C143.378 115.184 132.622 115.184 125.988 111.359L87.161 88.9768C86.1135 88.3729 86.1135 87.3939 87.161 86.7901L125.988 64.4073Z" fill="white" stroke="#189EE9" stroke-width="1.45946"/>
<rect x="86.9188" y="32.4238" width="102.162" height="55.4595" fill="white"/>
<path d="M86.1892 30.9639V87.8828" stroke="#189EE9" stroke-width="1.45946"/>
<path d="M189.811 30.9639V87.8828" stroke="#189EE9" stroke-width="1.45946"/>
<path d="M125.988 7.96883C132.622 4.14453 143.378 4.14453 150.012 7.96883L188.839 30.3514C189.886 30.9553 189.886 31.9343 188.839 32.5381L150.012 54.9209C143.378 58.7452 132.622 58.7452 125.988 54.9209L87.161 32.5383C86.1135 31.9344 86.1135 30.9554 87.161 30.3516L125.988 7.96883Z" fill="white" stroke="#189EE9" stroke-width="1.45946"/>
<path fill-rule="evenodd" clip-rule="evenodd" d="M86.5289 52.8009L125.356 75.1835C132.339 79.2091 143.661 79.2091 150.644 75.1835L189.471 52.8008C189.471 51.7787 189.246 51.0328 189.075 50.8623C189.075 51.5348 188.775 51.7444 188.207 52.0719L150.401 73.7983C147.259 75.6098 142.119 76.8589 138 76.8589C133.881 76.859 128.604 75.432 125.462 73.6205L87.7933 52.072C87.2252 51.7446 86.9064 51.7972 86.9064 50.8623C86.5857 50.8623 86.5289 52.2461 86.5289 52.8009Z" fill="#189EE9"/>
<path fill-rule="evenodd" clip-rule="evenodd" d="M86.5289 70.5939L125.356 92.9765C132.339 97.0021 143.661 97.0021 150.644 92.9765L189.471 70.5937C189.471 69.5717 189.246 68.8258 189.075 68.6553C189.075 69.3278 188.775 69.5374 188.207 69.8648L150.401 91.5913C147.259 93.4028 142.119 94.6519 138 94.6519C133.881 94.6519 128.604 93.225 125.462 91.4134L87.7933 69.865C87.2252 69.5375 86.9064 69.5902 86.9064 68.6553C86.5857 68.6553 86.5289 70.0391 86.5289 70.5939Z" fill="#189EE9"/>
<path d="M94.3327 43.3189C95.1004 44.52 95.1908 46.5194 94.5346 47.7849C93.8784 49.0503 92.7241 49.1025 91.9564 47.9015C91.1887 46.7004 91.0983 44.701 91.7545 43.4355C92.4106 42.1701 93.5649 42.1179 94.3327 43.3189Z" fill="white" stroke="#189EE9" stroke-width="1.45946"/>
<path d="M94.3327 62.1305C95.1004 63.3315 95.1908 65.331 94.5346 66.5964C93.8784 67.8618 92.7241 67.914 91.9564 66.713C91.1887 65.512 91.0983 63.5125 91.7545 62.247C92.4106 60.9816 93.5649 60.9294 94.3327 62.1305Z" fill="white" stroke="#189EE9" stroke-width="1.45946"/>
<path d="M94.3327 81.1041C95.1004 82.3051 95.1908 84.3046 94.5346 85.57C93.8784 86.8355 92.7241 86.8877 91.9564 85.6866C91.1887 84.4856 91.0983 82.4861 91.7545 81.2207C92.4106 79.9552 93.5649 79.903 94.3327 81.1041Z" fill="white" stroke="#189EE9" stroke-width="1.45946"/>
<path fill-rule="evenodd" clip-rule="evenodd" d="M121.946 63.0726L97.1351 48.1883V47.0186L121.946 61.6132V63.0726Z" fill="#189EE9"/>
<path fill-rule="evenodd" clip-rule="evenodd" d="M121.946 81.8841L97.1351 66.9999V65.8301L121.946 80.4247V81.8841Z" fill="#189EE9"/>
<path fill-rule="evenodd" clip-rule="evenodd" d="M121.946 100.857L97.1351 85.9725V84.8027L121.946 99.3973V100.857Z" fill="#189EE9"/>
<path d="M150.06 24.1782C156.33 27.7975 159.464 32.5413 159.464 37.2851L156.545 37.2851C156.545 32.9726 153.696 28.6601 147.996 25.3697C142.297 22.0794 134.826 20.4342 127.356 20.4342L127.356 18.7491C135.573 18.7491 143.791 20.5588 150.06 24.1782Z" fill="#189EE9"/>
<path d="M142.836 28.3486C147.111 30.8163 149.248 34.0507 149.248 37.2851H146.329C146.329 34.482 144.477 31.6788 140.772 29.5401C137.068 27.4014 132.212 26.332 127.356 26.332L127.356 24.6469C132.959 24.6469 138.562 25.8808 142.836 28.3486Z" fill="#189EE9"/>
<path fill-rule="evenodd" clip-rule="evenodd" d="M136.644 37.8809C133.794 39.526 129.174 39.526 126.324 37.8809C123.475 36.2357 123.475 33.5683 126.324 31.9232C129.174 30.278 133.794 30.278 136.644 31.9232C139.494 33.5683 139.494 36.2357 136.644 37.8809ZM134.58 36.6893C132.87 37.6764 130.098 37.6764 128.388 36.6893C126.678 35.7022 126.678 34.1018 128.388 33.1147C130.098 32.1276 132.87 32.1276 134.58 33.1147C136.29 34.1018 136.29 35.7022 134.58 36.6893Z" fill="#189EE9"/>
</svg>
