<svg width="32" height="32" viewBox="0 0 32 32" fill="none" xmlns="http://www.w3.org/2000/svg">
<path fill-rule="evenodd" clip-rule="evenodd" d="M18.0005 8C18.0005 9.10449 17.1051 10 16.0005 10C14.8959 10 14.0005 9.10449 14.0005 8C14.0005 6.89551 14.8959 6 16.0005 6C17.1051 6 18.0005 6.89551 18.0005 8ZM18.0005 16C18.0005 17.1045 17.1051 18 16.0005 18C14.8959 18 14.0005 17.1045 14.0005 16C14.0005 14.8955 14.8959 14 16.0005 14C17.1051 14 18.0005 14.8955 18.0005 16ZM16.0005 26C17.1051 26 18.0005 25.1045 18.0005 24C18.0005 22.8955 17.1051 22 16.0005 22C14.8959 22 14.0005 22.8955 14.0005 24C14.0005 25.1045 14.8959 26 16.0005 26Z" fill="#3B467F"/>
</svg>
