<svg width="1158" height="32" viewBox="0 0 1158 32" fill="none" xmlns="http://www.w3.org/2000/svg">
<rect x="112" width="1008" height="32" rx="16" fill="#272F5A" fill-opacity="0.65"/>
<path fill-rule="evenodd" clip-rule="evenodd" d="M9.29292 7.29297L1.29292 15.293L0.585815 16.0001L1.29292 16.7072L9.29292 24.7072L10.7071 23.293L4.4143 17.0001H23.0001V15.0001H4.41418L10.7071 8.70718L9.29292 7.29297Z" fill="#3B4680"/>
<path fill-rule="evenodd" clip-rule="evenodd" d="M46.7072 24.707L54.7072 16.707L55.4143 15.9999L54.7072 15.2928L46.7072 7.29282L45.293 8.70703L51.5858 14.9999L33 14.9999L33 16.9999L51.5859 16.9999L45.293 23.2928L46.7072 24.707Z" fill="#3B4680"/>
<path fill-rule="evenodd" clip-rule="evenodd" d="M76 24.1818C79.6142 24.1818 82.6811 21.8383 83.7641 18.588L85.4894 19.1631C84.1658 23.1358 80.4174 26 76 26C70.4772 26 66 21.5228 66 16C66 10.4772 70.4772 6 76 6C78.2514 6 80.329 6.74401 82.0004 7.99958L84 6L86 14L79 11L80.6988 9.30116C79.3691 8.36674 77.7486 7.81818 76 7.81818C71.4813 7.81818 67.8182 11.4813 67.8182 16C67.8182 20.5187 71.4813 24.1818 76 24.1818Z" fill="#3B467F"/>
<path fill-rule="evenodd" clip-rule="evenodd" d="M1158 8C1158 9.10449 1157.11 10 1156 10C1154.9 10 1154 9.10449 1154 8C1154 6.89551 1154.9 6 1156 6C1157.11 6 1158 6.89551 1158 8ZM1158 16C1158 17.1045 1157.11 18 1156 18C1154.9 18 1154 17.1045 1154 16C1154 14.8955 1154.9 14 1156 14C1157.11 14 1158 14.8955 1158 16ZM1156 26C1157.11 26 1158 25.1045 1158 24C1158 22.8955 1157.11 22 1156 22C1154.9 22 1154 22.8955 1154 24C1154 25.1045 1154.9 26 1156 26Z" fill="#3B467F"/>
</svg>
