<svg width="32" height="32" viewBox="0 0 32 32" fill="none" xmlns="http://www.w3.org/2000/svg">
<path fill-rule="evenodd" clip-rule="evenodd" d="M16 24.1818C19.6142 24.1818 22.6811 21.8383 23.7641 18.588L25.4894 19.1631C24.1658 23.1358 20.4174 26 16 26C10.4772 26 6 21.5228 6 16C6 10.4772 10.4772 6 16 6C18.2514 6 20.329 6.74401 22.0004 7.99958L24 6L26 14L19 11L20.6988 9.30116C19.3691 8.36674 17.7486 7.81818 16 7.81818C11.4813 7.81818 7.81818 11.4813 7.81818 16C7.81818 20.5187 11.4813 24.1818 16 24.1818Z" fill="#3B467F"/>
</svg>
