<svg width="24" height="24" viewBox="0 0 24 24" fill="none" xmlns="http://www.w3.org/2000/svg">
<path fill-rule="evenodd" clip-rule="evenodd" d="M7 5H2C1.44772 5 1 5.44772 1 6V20C1 20.5523 1.44772 21 2 21H22C22.5523 21 23 20.5523 23 20V6C23 5.44772 22.5523 5 22 5H17V6H22V20H2V6H7V5Z" fill="white"/>
<rect x="11" y="3" width="2" height="13" fill="white"/>
<path d="M8.70711 11.2929C8.31658 10.9024 7.68342 10.9024 7.29289 11.2929C6.90237 11.6834 6.90237 12.3166 7.29289 12.7071L8.70711 11.2929ZM12 16L11.2929 16.7071L12 17.4142L12.7071 16.7071L12 16ZM16.7071 12.7071C17.0976 12.3166 17.0976 11.6834 16.7071 11.2929C16.3166 10.9024 15.6834 10.9024 15.2929 11.2929L16.7071 12.7071ZM7.29289 12.7071L11.2929 16.7071L12.7071 15.2929L8.70711 11.2929L7.29289 12.7071ZM12.7071 16.7071L16.7071 12.7071L15.2929 11.2929L11.2929 15.2929L12.7071 16.7071Z" fill="white"/>
</svg>
