<svg width="181" height="30" viewBox="0 0 181 30" fill="none" xmlns="http://www.w3.org/2000/svg">
<path d="M54.1906 0.0561523H30.1514V2.99427H53.9235V26.4993H30.1514V29.4374H54.1906H56.8616V26.7664V2.72717V0.0561523H54.1906Z" fill="white"/>
<path d="M26.9465 0.0561523H2.90735H0.236328V2.72717V26.7664V29.4374H2.90735H26.9465V26.4993H3.17445V2.99427H26.9465V0.0561523Z" fill="white"/>
<path d="M70.5215 0H79.5068V1.55186H72.0707V4.65292H75.7353V6.20211H72.0707V9.29782H79.5068V10.847H70.5215V0Z" fill="white"/>
<path d="M83.5401 10.847H81.9883V0H83.5401L90.0601 8.41104V0H91.6093V10.847H90.0601L83.5401 2.43597V10.847Z" fill="white"/>
<path d="M94.3955 1.55187C94.3968 1.34404 94.4404 1.13864 94.5237 0.94822C94.6018 0.764769 94.7142 0.597946 94.8549 0.456753C94.9964 0.317596 95.162 0.205364 95.3437 0.125546C95.5331 0.0423714 95.7378 -0.000384814 95.9447 8.13531e-06H101.821C102.029 -0.000678303 102.234 0.0420825 102.425 0.125546C102.608 0.205165 102.775 0.317383 102.919 0.456753C103.06 0.59784 103.174 0.764647 103.253 0.94822C103.333 1.13922 103.374 1.34459 103.373 1.55187V2.93813H101.821V1.55187H95.9447V9.29783H101.821V6.67756H98.8828V5.11234H103.375V9.29783C103.376 9.50422 103.336 9.70866 103.255 9.89881C103.097 10.2714 102.8 10.5681 102.427 10.7268C102.236 10.8074 102.031 10.8482 101.824 10.847H95.9474C95.741 10.848 95.5365 10.8071 95.3464 10.7268C95.1607 10.6489 94.9919 10.5355 94.8496 10.3929C94.7107 10.2503 94.6002 10.0826 94.5237 9.89881C94.4435 9.70866 94.4026 9.50422 94.4035 9.29783L94.3955 1.55187Z" fill="white"/>
<path d="M107.715 0V10.847H106.163V0H107.715Z" fill="white"/>
<path d="M112.051 10.847H110.499V0H112.051L118.563 8.41104V0H120.112V10.847H118.563L112.051 2.43597V10.847Z" fill="white"/>
<path d="M122.903 0H130.81V1.55186H124.455V4.65292H129.88V6.20211H124.455V9.29782H130.81V10.847H122.903V0Z" fill="white"/>
<path d="M133.13 0H141.036V1.55186H134.682V4.65292H140.107V6.20211H134.682V9.29782H141.036V10.847H133.13V0Z" fill="white"/>
<path d="M151.93 3.87298C151.93 5.38478 151.284 6.24752 149.993 6.4612L152.037 10.847H150.319L148.305 6.51195H144.91V10.847H143.358V0H149.296C151.052 0 151.93 0.879656 151.93 2.63897V3.87298ZM144.91 4.96276H149.213C149.534 4.99511 149.855 4.89908 150.105 4.69565C150.308 4.44485 150.404 4.12443 150.373 3.80353V2.71643C150.405 2.39544 150.309 2.0747 150.105 1.82431C149.855 1.62088 149.534 1.52485 149.213 1.5572H144.91V4.96276Z" fill="white"/>
<path d="M156.066 0V10.847H154.517V0H156.066Z" fill="white"/>
<path d="M160.401 10.847H158.85V0H160.401L166.921 8.41104V0H168.473V10.847H166.921L160.401 2.43597V10.847Z" fill="white"/>
<path d="M171.257 1.55187C171.255 1.34824 171.295 1.1464 171.373 0.958294C171.451 0.77019 171.566 0.599643 171.711 0.456747C171.854 0.316814 172.021 0.204522 172.205 0.125541C172.395 0.042366 172.599 -0.000390265 172.806 2.68412e-06H178.682C178.889 -0.000390265 179.094 0.042366 179.283 0.125541C179.467 0.204138 179.635 0.316475 179.777 0.456747C179.922 0.599643 180.037 0.77019 180.115 0.958294C180.193 1.1464 180.233 1.34824 180.231 1.55187V2.93813H178.682V1.55187H172.806V9.29782H178.682V6.67755H175.744V5.11234H180.237V9.29782C180.238 9.50137 180.198 9.70303 180.12 9.89105C180.042 10.0791 179.927 10.2497 179.783 10.3929C179.642 10.536 179.474 10.6495 179.289 10.7268C179.098 10.8071 178.894 10.848 178.688 10.847H172.811C172.608 10.8474 172.406 10.8075 172.218 10.7298C172.03 10.6521 171.859 10.538 171.715 10.3941C171.571 10.2501 171.457 10.0792 171.379 9.89109C171.302 9.70298 171.262 9.50137 171.262 9.29782L171.257 1.55187Z" fill="white"/>
<path d="M81.9883 18.5898H89.8945V20.1417H83.5401V23.2374H88.9623V24.7866H83.5401V27.8823H89.8945V29.4315H81.9883V18.5898Z" fill="white"/>
<path d="M93.7677 29.4369H92.2158V18.5898H93.7677L100.288 27.0009V18.5898H101.837V29.4369H100.288L93.7677 21.0258V29.4369Z" fill="white"/>
<path d="M103.69 18.5898H112.366V20.1417H108.805V29.4369H107.254V20.1417H103.69V18.5898Z" fill="white"/>
<path d="M122.799 22.4628C122.799 23.9746 122.153 24.8374 120.862 25.051L122.903 29.4369H121.188L119.174 25.1071H115.779V29.4422H114.228V18.5898H120.165C121.921 18.5898 122.799 19.4695 122.799 21.2288V22.4628ZM115.779 23.5526H120.082C120.242 23.5835 120.407 23.5748 120.562 23.5273C120.718 23.4797 120.859 23.3947 120.974 23.2797C121.089 23.1648 121.174 23.0234 121.222 22.8679C121.269 22.7124 121.278 22.5476 121.247 22.388V21.3196C121.279 21.1599 121.27 20.9949 121.223 20.8391C121.176 20.6833 121.091 20.5416 120.976 20.4264C120.86 20.3113 120.719 20.2263 120.563 20.179C120.407 20.1316 120.242 20.1234 120.082 20.1551H115.779V23.5526Z" fill="white"/>
<path d="M125.385 18.5898H133.291V20.1417H126.937V23.2374H132.361V24.7866H126.937V27.8823H133.291V29.4315H125.385V18.5898Z" fill="white"/>
<path d="M72.071 27.8877V20.1417H79.5071V18.5898H70.4844L70.5218 29.4369H77.1967H77.9579H79.5071V27.8877H72.071Z" fill="white"/>
<path d="M14.4415 14.7346L6.11328 9.92676V19.5424L14.4415 14.7346Z" fill="white"/>
</svg>
