<svg width="1920" height="1406" viewBox="0 0 1920 1406" fill="none" xmlns="http://www.w3.org/2000/svg">
<path d="M578.487 449.935L494 401.114C469.249 386.811 438.746 386.803 413.987 401.091L164.5 545.068L0 450V1406H1920V450.629L1774.9 533.176C1762.57 540.191 1747.45 540.15 1735.16 533.068L1505.89 400.98C1481.19 386.754 1450.8 386.737 1426.09 400.938L1268.47 491.521C1256.11 498.627 1240.9 498.613 1228.55 491.485L999.945 359.553C975.222 345.285 944.77 345.27 920.034 359.515L835.091 408.431C822.665 415.586 807.36 415.543 794.974 408.318L783.12 401.403C758.312 386.932 727.651 386.869 702.784 401.239L618.513 449.935C606.13 457.091 590.87 457.091 578.487 449.935Z" fill="url(#paint0_linear)"/>
<path opacity="0.3" fill-rule="evenodd" clip-rule="evenodd" d="M960 0L-127.039 629.635L-128 630.192L-127.038 630.747L960 1258L2047.04 630.747L2048 630.192L2047.04 629.635L960 0ZM-53.9393 671.44L-125.435 630.19L-52.7677 588.136L18.8417 629.458L-53.5853 671.263L-53.9393 671.44ZM-52.6318 672.194L18.1511 713.032L19.5468 712.334L90.9959 671.094L20.1255 630.198L-52.6318 672.194ZM19.5592 713.845L90.8372 754.968L91.3959 754.689L163.62 713.001L92.2797 671.834L20.188 713.446L19.5592 713.845ZM92.1584 755.731L162.928 796.561L164.528 795.76L235.775 754.637L164.904 713.742L92.1584 755.731ZM164.358 797.386L235.614 838.497L236.377 838.115L308.399 796.544L237.058 755.378L165.169 796.872L164.358 797.386ZM236.923 839.253L307.704 880.09L309.509 879.187L380.553 838.18L309.683 797.285L237.018 839.227L236.923 839.253ZM309.157 880.928L380.39 922.026L381.358 921.542L453.178 880.088L381.837 838.921L310.15 880.299L309.157 880.928ZM381.751 922.811L451.893 963.28L453.207 962.614L524.691 921.353L454.462 880.828L381.999 922.654L381.751 922.811ZM453.285 964.083L525.245 1005.6L526.339 1004.97L597.957 963.631L525.974 922.094L453.849 963.725L453.285 964.083ZM526.55 1006.35L597.853 1047.49L598.189 1047.32L670.581 1005.54L599.241 964.372L526.981 1006.08L526.55 1006.35ZM599.159 1048.25L669.308 1088.72L742.094 1046.8L671.865 1006.28L599.159 1048.25ZM670.674 1089.51L741.383 1130.3L814.163 1088.39L743.378 1047.54L670.679 1089.51L670.674 1089.51ZM742.752 1131.09L814.096 1172.25L886.311 1130.02L815.446 1089.13L742.752 1131.09ZM815.375 1172.99L885.766 1213.6L958.716 1171.8L887.595 1130.76L815.375 1172.99ZM887.052 1214.35L960 1256.72L1032.55 1214.58L960 1172.54L887.052 1214.35ZM1033.83 1213.84L1105.05 1172.74L1104.34 1172.29L1032.4 1130.76L961.284 1171.8L1033.83 1213.84ZM1106.46 1171.93L1177.25 1131.09L1104.55 1089.13L1033.69 1130.02L1104.98 1171.18L1106.46 1171.93ZM1178.56 1130.33L1249.32 1089.51L1176.62 1047.54L1105.84 1088.39L1178.11 1130.11L1178.56 1130.33ZM1250.65 1088.74L1320.84 1048.25L1248.13 1006.28L1177.91 1046.8L1249.96 1088.4L1250.65 1088.74ZM1322.15 1047.49L1393.45 1006.35L1393.02 1006.08L1320.76 964.372L1249.42 1005.54L1321.81 1047.32L1322.15 1047.49ZM1394.83 1005.56L1466.72 964.083L1466.15 963.725L1394.03 922.094L1322.04 963.631L1393.66 1004.97L1394.83 1005.56ZM1468.07 963.304L1538.25 922.811L1538 922.654L1465.54 880.828L1395.31 921.353L1466.79 962.614L1468.07 963.304ZM1539.61 922.026L1610.84 880.928L1609.85 880.299L1538.16 838.921L1466.82 880.088L1538.64 921.542L1539.61 922.026ZM1612.3 880.09L1683.08 839.253L1682.98 839.227L1610.32 797.285L1539.45 838.18L1610.49 879.187L1612.3 880.09ZM1684.39 838.497L1755.64 797.386L1754.83 796.872L1682.94 755.378L1611.6 796.544L1683.62 838.115L1684.39 838.497ZM1757.07 796.561L1827.84 755.731L1755.1 713.742L1684.22 754.637L1755.47 795.76L1757.07 796.561ZM1829.16 754.969L1900.44 713.845L1899.81 713.446L1827.72 671.834L1756.38 713.001L1828.6 754.689L1829.16 754.969ZM1901.85 713.032L1972.63 672.194L1899.87 630.198L1829 671.094L1900.45 712.334L1901.85 713.032ZM1973.94 671.44L2045.43 630.19L1972.77 588.136L1901.16 629.458L1973.58 671.263L1973.94 671.44ZM1971.49 587.394L1900.25 546.168L1828.56 587.554L1899.87 628.717L1971.49 587.394ZM1898.97 545.426L1828.28 504.521L1756.49 545.958L1827.28 586.813L1898.97 545.426ZM1827 503.779L1756.32 462.874L1684.44 504.366L1755.21 545.217L1827 503.779ZM1755.04 462.132L1684.91 421.548L1612.93 463.094L1683.15 503.625L1755.04 462.132ZM1683.63 420.806L1612.39 379.579L1540.32 421.181L1611.65 462.353L1683.63 420.806ZM1611.11 378.838L1539.23 337.24L1467.06 378.898L1539.04 420.44L1611.11 378.838ZM1537.95 336.499L1467.83 295.915L1395.56 337.626L1465.78 378.157L1537.95 336.499ZM1466.54 295.173L1395.31 253.946L1322.95 295.713L1394.28 336.885L1466.54 295.173ZM1394.02 253.204L1323.26 212.25L1250.8 254.071L1321.66 294.972L1394.02 253.204ZM1321.98 211.508L1250.74 170.281L1178.19 212.158L1249.52 253.33L1321.98 211.508ZM1249.46 169.54L1178.69 128.585L1106.04 170.517L1176.9 211.417L1249.46 169.54ZM1177.41 127.843L1106.17 86.6166L1033.43 128.603L1104.76 169.776L1177.41 127.843ZM1104.89 85.8747L1034.12 44.9201L961.283 86.9617L1032.14 127.862L1104.89 85.8747ZM1032.84 44.1782L960 1.28348L887.161 44.1783L960 86.2208L1032.84 44.1782ZM885.879 44.9202L815.112 85.8748L887.856 127.862L958.716 86.9617L885.879 44.9202ZM813.83 86.6167L742.593 127.843L815.241 169.776L886.572 128.603L813.83 86.6167ZM741.311 128.585L670.544 169.54L743.097 211.417L813.957 170.517L741.311 128.585ZM669.262 170.282L598.025 211.508L670.482 253.33L741.813 212.158L669.262 170.282ZM596.743 212.25L525.975 253.205L598.338 294.972L669.199 254.071L596.743 212.25ZM524.694 253.946L453.456 295.173L525.723 336.885L597.054 295.713L524.694 253.946ZM452.175 295.915L382.048 336.499L454.221 378.157L524.44 337.626L452.175 295.915ZM380.766 337.24L308.888 378.838L380.965 420.44L452.937 378.898L380.766 337.24ZM307.606 379.58L236.369 420.806L308.35 462.353L379.681 421.181L307.606 379.58ZM235.087 421.548L164.961 462.132L236.847 503.625L307.066 463.094L235.087 421.548ZM163.679 462.874L92.9969 503.779L164.789 545.217L235.564 504.366L163.679 462.874ZM91.715 504.521L21.0329 545.426L92.7241 586.813L163.505 545.958L91.715 504.521ZM19.751 546.168L-51.4857 587.394L20.1254 628.717L91.4405 587.554L19.751 546.168ZM889.139 128.603L960 87.7026L1030.86 128.603L960 169.504L889.139 128.603ZM961.283 170.245L1032.14 129.344L1103.48 170.517L1032.61 211.417L961.283 170.245ZM1033.9 212.158L1104.76 171.257L1175.62 212.158L1104.76 253.059L1033.9 212.158ZM1106.04 253.8L1176.9 212.899L1248.23 254.071L1177.37 294.972L1106.04 253.8ZM1178.66 295.713L1249.52 254.812L1320.38 295.713L1249.52 336.614L1178.66 295.713ZM1250.8 337.355L1321.66 296.454L1392.99 337.626L1322.13 378.527L1250.8 337.355ZM1323.42 379.268L1394.28 338.367L1464.5 378.898L1393.63 419.798L1323.42 379.268ZM1394.92 420.539L1465.78 379.638L1537.75 421.181L1466.89 462.082L1394.92 420.539ZM1468.17 462.823L1539.04 421.922L1610.37 463.094L1539.51 503.995L1468.17 462.823ZM1540.79 504.736L1611.65 463.835L1681.87 504.366L1611.01 545.266L1540.79 504.736ZM1612.29 546.007L1683.15 505.107L1753.93 545.958L1683.07 586.859L1612.29 546.007ZM1684.35 587.6L1755.21 546.699L1825.99 587.554L1755.14 628.458L1684.35 587.6ZM1756.42 629.199L1827.28 588.294L1898.59 629.457L1827.72 670.353L1756.42 629.199ZM1755.14 629.939L1826.44 671.093L1755.1 712.26L1683.81 671.115L1755.14 629.939ZM1682.53 671.856L1753.81 713.001L1682.94 753.896L1611.67 712.76L1682.53 671.856ZM1610.39 713.501L1681.66 754.637L1610.32 795.803L1539.06 754.676L1610.39 713.501ZM1537.78 755.417L1609.03 796.544L1538.16 837.439L1466.93 796.321L1537.78 755.417ZM1465.64 797.062L1536.88 838.18L1465.54 879.347L1394.32 838.238L1465.64 797.062ZM1393.03 838.979L1464.25 880.088L1394.03 920.612L1322.82 879.513L1393.03 838.979ZM1321.54 880.253L1392.74 921.353L1320.76 962.89L1249.57 921.799L1321.54 880.253ZM1248.29 922.54L1319.48 963.631L1248.13 1004.8L1176.96 963.716L1248.29 922.54ZM1175.68 964.457L1246.85 1005.54L1176.62 1046.06L1105.46 1004.99L1175.68 964.457ZM1104.18 1005.73L1175.34 1046.8L1104.55 1087.65L1033.41 1046.59L1104.18 1005.73ZM1032.13 1047.33L1103.27 1088.39L1032.41 1129.28L961.283 1088.22L1032.13 1047.33ZM960 1088.97L1031.12 1130.02L960 1171.06L888.878 1130.02L960 1088.97ZM958.716 1088.22L887.595 1129.28L816.73 1088.39L887.873 1047.33L958.716 1088.22ZM886.589 1046.59L815.446 1087.65L744.661 1046.8L815.82 1005.73L886.589 1046.59ZM814.536 1004.99L743.378 1046.06L673.149 1005.54L744.323 964.457L814.536 1004.99ZM743.039 963.716L671.865 1004.8L600.524 963.631L671.714 922.54L743.039 963.716ZM670.43 921.799L599.24 962.89L527.258 921.353L598.463 880.253L670.43 921.799ZM597.18 879.513L525.974 920.612L455.745 880.087L526.966 838.979L597.18 879.513ZM525.683 838.238L454.462 879.347L383.121 838.18L454.357 797.062L525.683 838.238ZM453.074 796.321L381.837 837.439L310.967 796.544L382.219 755.417L453.074 796.321ZM380.935 754.676L309.683 795.803L238.342 754.637L309.61 713.501L380.935 754.676ZM308.326 712.76L237.058 753.896L166.188 713.001L237.471 671.856L308.326 712.76ZM236.188 671.115L164.904 712.26L93.5634 671.093L164.863 629.939L236.188 671.115ZM163.579 629.199L92.2796 670.353L21.4092 629.457L92.724 588.294L163.579 629.199ZM164.863 628.458L94.0076 587.554L164.789 546.699L235.649 587.6L164.863 628.458ZM236.933 586.859L166.072 545.958L236.847 505.107L307.708 546.007L236.933 586.859ZM308.991 545.266L238.131 504.366L308.35 463.835L379.211 504.736L308.991 545.266ZM380.494 503.995L309.634 463.094L380.965 421.922L451.825 462.823L380.494 503.995ZM453.109 462.082L382.248 421.181L454.221 379.638L525.081 420.539L453.109 462.082ZM526.365 419.798L455.504 378.898L525.723 338.367L596.584 379.268L526.365 419.798ZM597.868 378.527L527.007 337.626L598.338 296.454L669.199 337.355L597.868 378.527ZM670.482 336.614L599.622 295.713L670.482 254.812L741.343 295.713L670.482 336.614ZM742.626 294.972L671.766 254.071L743.097 212.899L813.957 253.8L742.626 294.972ZM815.241 253.059L744.38 212.158L815.241 171.257L886.102 212.158L815.241 253.059ZM887.385 211.417L816.525 170.517L887.856 129.344L958.716 170.245L887.385 211.417ZM888.669 212.158L960 170.986L1031.33 212.158L960 253.33L888.669 212.158ZM961.283 254.071L1032.61 212.899L1103.48 253.8L1032.14 294.972L961.283 254.071ZM1033.43 295.713L1104.76 254.541L1176.09 295.713L1104.76 336.885L1033.43 295.713ZM1106.04 337.626L1177.37 296.454L1248.23 337.355L1176.9 378.527L1106.04 337.626ZM1178.19 379.268L1249.52 338.096L1320.85 379.268L1249.52 420.44L1178.19 379.268ZM1250.8 421.181L1322.13 380.009L1392.35 420.539L1321.02 461.712L1250.8 421.181ZM1322.3 462.452L1393.63 421.28L1465.61 462.823L1394.28 503.995L1322.3 462.452ZM1395.56 504.736L1466.89 463.564L1538.22 504.736L1466.89 545.908L1395.56 504.736ZM1468.17 546.649L1539.51 505.477L1609.72 546.007L1538.39 587.18L1468.17 546.649ZM1539.68 587.92L1611.01 546.748L1681.78 587.6L1610.45 628.772L1539.68 587.92ZM1611.74 629.513L1683.07 588.341L1753.85 629.199L1682.53 670.374L1611.74 629.513ZM1610.45 630.254L1681.24 671.115L1610.39 712.019L1539.59 671.154L1610.45 630.254ZM1538.31 671.895L1609.11 712.76L1537.78 753.936L1466.98 713.068L1538.31 671.895ZM1465.69 713.808L1536.5 754.676L1465.64 795.581L1394.83 754.709L1465.69 713.808ZM1393.55 755.45L1464.36 796.321L1393.03 837.497L1322.22 796.622L1393.55 755.45ZM1320.93 797.363L1391.75 838.238L1321.54 878.772L1250.72 837.894L1320.93 797.363ZM1249.43 838.635L1320.25 879.513L1248.29 921.058L1177.46 880.177L1249.43 838.635ZM1176.18 880.918L1247 921.799L1175.68 962.975L1104.84 922.09L1176.18 880.918ZM1103.56 922.831L1174.39 963.716L1104.18 1004.25L1033.34 963.362L1103.56 922.831ZM1032.06 964.103L1102.9 1004.99L1032.13 1045.85L961.283 1004.95L1032.06 964.103ZM960 1005.7L1030.84 1046.59L960 1087.48L889.156 1046.59L960 1005.7ZM958.716 1004.95L887.873 1045.85L817.103 1004.99L887.941 964.103L958.716 1004.95ZM886.658 963.362L815.82 1004.25L745.606 963.716L816.438 922.831L886.658 963.362ZM815.155 922.09L744.323 962.975L672.997 921.799L743.824 880.918L815.155 922.09ZM742.54 880.177L671.714 921.058L599.747 879.513L670.568 838.635L742.54 880.177ZM669.284 837.894L598.463 878.772L528.25 838.238L599.065 797.363L669.284 837.894ZM597.781 796.622L526.966 837.497L455.641 796.321L526.45 755.45L597.781 796.622ZM525.167 754.709L454.357 795.581L383.502 754.676L454.306 713.808L525.167 754.709ZM453.023 713.068L382.219 753.936L310.894 712.76L381.692 671.895L453.023 713.068ZM380.408 671.154L309.61 712.019L238.755 671.115L309.547 630.254L380.408 671.154ZM308.264 629.513L237.472 670.374L166.146 629.199L236.933 588.341L308.264 629.513ZM309.547 628.772L238.216 587.6L308.991 546.748L380.322 587.92L309.547 628.772ZM381.606 587.18L310.275 546.007L380.494 505.477L451.825 546.649L381.606 587.18ZM453.109 545.908L381.778 504.736L453.109 463.564L524.44 504.736L453.109 545.908ZM525.723 503.995L454.392 462.823L526.365 421.28L597.696 462.452L525.723 503.995ZM598.979 461.712L527.648 420.539L597.868 380.009L669.199 421.181L598.979 461.712ZM670.482 420.44L599.151 379.268L670.482 338.096L741.813 379.268L670.482 420.44ZM743.097 378.527L671.766 337.355L742.626 296.454L813.957 337.626L743.097 378.527ZM815.241 336.885L743.91 295.713L815.241 254.541L886.572 295.713L815.241 336.885ZM887.856 294.972L816.525 253.8L887.385 212.899L958.716 254.071L887.856 294.972ZM889.139 295.713L960 254.812L1030.86 295.713L960 336.614L889.139 295.713ZM961.283 337.355L1032.14 296.454L1103.48 337.626L1032.61 378.527L961.283 337.355ZM1033.9 379.268L1104.76 338.367L1175.62 379.268L1104.76 420.169L1033.9 379.268ZM1106.04 420.91L1176.9 380.009L1248.23 421.181L1177.37 462.082L1106.04 420.91ZM1178.66 462.823L1249.52 421.922L1319.74 462.452L1248.88 503.353L1178.66 462.823ZM1250.16 504.094L1321.02 463.193L1392.99 504.736L1322.13 545.637L1250.16 504.094ZM1323.42 546.378L1394.28 505.477L1465.61 546.649L1394.75 587.55L1323.42 546.378ZM1396.03 588.291L1466.89 547.39L1537.11 587.92L1466.25 628.821L1396.03 588.291ZM1467.53 629.562L1538.39 588.661L1609.17 629.513L1538.31 670.414L1467.53 629.562ZM1466.25 630.303L1537.02 671.154L1465.69 712.327L1394.92 671.475L1466.25 630.303ZM1393.63 672.216L1464.41 713.068L1393.55 753.968L1322.77 713.117L1393.63 672.216ZM1321.49 713.858L1392.27 754.709L1320.93 795.882L1250.16 755.03L1321.49 713.858ZM1248.88 755.771L1319.65 796.622L1249.43 837.153L1178.66 796.302L1248.88 755.771ZM1177.37 797.042L1248.15 837.894L1176.18 879.436L1105.4 838.585L1177.37 797.042ZM1104.12 839.326L1174.89 880.177L1103.56 921.35L1032.79 880.498L1104.12 839.326ZM1031.5 881.239L1102.28 922.09L1032.06 962.621L961.283 921.77L1031.5 881.239ZM960 922.51L1030.77 963.362L960 1004.21L889.225 963.362L960 922.51ZM958.716 921.77L887.941 962.621L817.722 922.09L888.497 881.239L958.716 921.77ZM887.214 880.498L816.438 921.35L745.107 880.177L815.883 839.326L887.214 880.498ZM814.599 838.585L743.824 879.436L671.851 837.894L742.626 797.042L814.599 838.585ZM741.343 796.302L670.568 837.153L600.349 796.622L671.124 755.771L741.343 796.302ZM669.84 755.03L599.065 795.882L527.734 754.709L598.509 713.858L669.84 755.03ZM597.226 713.117L526.451 753.968L455.59 713.068L526.365 672.216L597.226 713.117ZM525.081 671.475L454.306 712.327L382.975 671.154L453.75 630.303L525.081 671.475ZM452.467 629.562L381.692 670.414L310.831 629.513L381.606 588.661L452.467 629.562ZM453.75 628.821L382.89 587.92L453.109 547.39L523.969 588.291L453.75 628.821ZM525.253 587.55L454.392 546.649L525.723 505.477L596.584 546.378L525.253 587.55ZM597.868 545.637L527.007 504.736L598.979 463.193L669.84 504.094L597.868 545.637ZM671.124 503.353L600.263 462.452L670.482 421.922L741.343 462.823L671.124 503.353ZM742.626 462.082L671.766 421.181L743.097 380.009L813.957 420.91L742.626 462.082ZM815.241 420.169L744.38 379.268L815.241 338.367L886.102 379.268L815.241 420.169ZM887.385 378.527L816.525 337.626L887.856 296.454L958.716 337.355L887.385 378.527ZM888.669 379.268L960 338.096L1031.33 379.268L960 420.44L888.669 379.268ZM961.283 421.181L1032.61 380.009L1103.48 420.91L1032.14 462.082L961.283 421.181ZM1033.43 462.823L1104.76 421.65L1176.09 462.823L1104.76 503.995L1033.43 462.823ZM1106.04 504.736L1177.37 463.564L1247.59 504.094L1176.26 545.266L1106.04 504.736ZM1177.55 546.007L1248.88 504.835L1320.85 546.378L1249.52 587.55L1177.55 546.007ZM1250.8 588.291L1322.13 547.118L1393.46 588.291L1322.13 629.463L1250.8 588.291ZM1323.42 630.204L1394.75 589.032L1464.97 629.562L1393.63 670.734L1323.42 630.204ZM1322.13 630.945L1392.35 671.475L1321.49 712.376L1251.27 671.846L1322.13 630.945ZM1249.99 672.586L1320.21 713.117L1248.88 754.289L1178.66 713.759L1249.99 672.586ZM1177.37 714.5L1247.59 755.03L1177.37 795.561L1107.15 755.03L1177.37 714.5ZM1105.87 755.771L1176.09 796.302L1104.12 837.844L1033.9 797.314L1105.87 755.771ZM1032.61 798.055L1102.83 838.585L1031.5 879.757L961.283 839.227L1032.61 798.055ZM960 839.968L1030.22 880.498L960 921.029L889.781 880.498L960 839.968ZM958.716 839.227L888.497 879.757L817.166 838.585L887.385 798.055L958.716 839.227ZM886.102 797.314L815.883 837.844L743.91 796.302L814.129 755.771L886.102 797.314ZM812.846 755.03L742.626 795.561L672.407 755.03L742.626 714.5L812.846 755.03ZM741.343 713.759L671.124 754.289L599.793 713.117L670.012 672.586L741.343 713.759ZM668.728 671.846L598.509 712.376L527.648 671.475L597.868 630.945L668.728 671.846ZM596.584 630.204L526.365 670.734L455.034 629.562L525.253 589.032L596.584 630.204ZM597.868 629.463L526.537 588.291L597.868 547.118L669.199 588.291L597.868 629.463ZM670.482 587.55L599.151 546.378L671.124 504.835L742.455 546.007L670.482 587.55ZM743.738 545.266L672.407 504.094L742.626 463.564L813.957 504.736L743.738 545.266ZM815.241 503.995L743.91 462.823L815.241 421.65L886.572 462.823L815.241 503.995ZM887.856 462.082L816.525 420.91L887.385 380.009L958.716 421.181L887.856 462.082ZM889.139 462.823L960 421.922L1030.86 462.823L960 503.724L889.139 462.823ZM961.283 504.464L1032.14 463.564L1103.48 504.736L1032.61 545.637L961.283 504.464ZM1033.9 546.378L1104.76 505.477L1174.98 546.007L1104.12 586.908L1033.9 546.378ZM1105.4 587.649L1176.26 546.748L1248.23 588.291L1177.37 629.192L1105.4 587.649ZM1178.66 629.932L1249.52 589.032L1320.85 630.204L1249.99 671.105L1178.66 629.932ZM1177.37 630.673L1248.7 671.846L1177.37 713.018L1106.04 671.846L1177.37 630.673ZM1104.76 672.586L1176.09 713.759L1105.87 754.289L1034.54 713.117L1104.76 672.586ZM1033.26 713.858L1104.59 755.03L1032.61 796.573L961.283 755.4L1033.26 713.858ZM960 756.141L1031.33 797.314L960 838.486L888.669 797.314L960 756.141ZM958.716 755.4L887.385 796.573L815.413 755.03L886.744 713.858L958.716 755.4ZM885.46 713.117L814.129 754.289L743.91 713.759L815.241 672.586L885.46 713.117ZM813.957 671.846L742.626 713.018L671.295 671.846L742.626 630.673L813.957 671.846ZM741.343 629.932L670.012 671.105L599.151 630.204L670.482 589.032L741.343 629.932ZM742.626 629.192L671.766 588.291L743.738 546.748L814.599 587.649L742.626 629.192ZM815.883 586.908L745.022 546.007L815.241 505.477L886.102 546.378L815.883 586.908ZM887.385 545.637L816.525 504.736L887.856 463.564L958.716 504.464L887.385 545.637ZM888.669 546.378L960 505.205L1031.33 546.378L960 587.55L888.669 546.378ZM961.283 588.291L1032.61 547.118L1102.83 587.649L1031.5 628.821L961.283 588.291ZM1032.79 629.562L1104.12 588.39L1176.09 629.932L1104.76 671.105L1032.79 629.562ZM1031.5 630.303L1103.48 671.846L1033.26 712.376L961.283 670.834L1031.5 630.303ZM960 671.574L1031.97 713.117L960 754.66L888.027 713.117L960 671.574ZM958.716 670.834L886.744 712.376L816.525 671.846L888.497 630.303L958.716 670.834ZM887.214 629.562L815.241 671.105L743.91 629.932L815.883 588.39L887.214 629.562ZM888.497 628.821L817.166 587.649L887.385 547.118L958.716 588.291L888.497 628.821ZM889.781 629.562L960 589.032L1030.22 629.562L960 670.093L889.781 629.562Z" fill="url(#paint1_radial)"/>
<defs>
<linearGradient id="paint0_linear" x1="960" y1="336.5" x2="960" y2="1406" gradientUnits="userSpaceOnUse">
<stop stop-color="#272F5A"/>
<stop offset="1" stop-color="#12193D"/>
</linearGradient>
<radialGradient id="paint1_radial" cx="0" cy="0" r="1" gradientUnits="userSpaceOnUse" gradientTransform="translate(960 622.811) rotate(90) scale(565.689 978.489)">
<stop stop-color="#189EE9"/>
<stop offset="1" stop-color="white" stop-opacity="0"/>
</radialGradient>
</defs>
</svg>
