<svg viewBox="0 0 320 1259" fill="none" xmlns="http://www.w3.org/2000/svg">
<rect y="615" width="320" height="459" fill="#12193D"/>
<rect x="320" y="615" width="320" height="300" transform="rotate(180 320 615)" fill="url(#paint0_linear)"/>
<rect x="320" y="615" width="320" height="302" transform="rotate(180 320 615)" fill="url(#paint1_linear)"/>
<path fill-rule="evenodd" clip-rule="evenodd" d="M981.533 506.162C1000.67 517.207 1031.69 517.205 1050.82 506.16L1326.6 346.939C1345.73 335.893 1376.75 335.892 1395.88 346.936L1803.19 582.059C1822.33 593.103 1822.33 611.011 1803.2 622.056L1458.21 821.231L1458.14 821.277L1050.84 1056.43C1031.71 1067.48 1000.69 1067.48 981.554 1056.43L552.207 808.593L305.626 950.956C286.494 962.002 255.475 962.003 236.342 950.959L-21.0632 802.372C-32.6705 795.671 -37.2361 786.445 -34.7601 777.757L-258.886 648.381C-278.019 637.336 -278.019 619.429 -258.888 608.383L-73.2581 501.21C-54.1263 490.164 -23.107 490.163 -3.97454 501.207L179.034 606.849C198.166 617.893 229.186 617.892 248.318 606.846L492.507 465.864C511.639 454.818 542.658 454.817 561.79 465.861L634.755 507.98C653.887 519.024 684.907 519.023 704.038 507.977L809.704 446.971C828.836 435.925 859.855 435.924 878.988 446.968L981.533 506.162Z" fill="#12193D"/>
<path fill-rule="evenodd" clip-rule="evenodd" d="M505.761 1043.47C510.713 1053.3 505.901 1063.89 493.367 1071.12L203.242 1238.63C184.111 1249.67 153.091 1249.67 133.959 1238.63L-273.357 1003.51C-292.489 992.463 -292.49 974.556 -273.358 963.51L71.6232 764.335L71.7024 764.289L384.5 764.289C384.5 884.444 424.416 882.049 505.761 1043.47Z" fill="#12193D"/>
<defs>
<linearGradient id="paint0_linear" x1="320" y1="789.3" x2="640.003" y2="788.999" gradientUnits="userSpaceOnUse">
<stop stop-color="#4D59A1"/>
<stop offset="0.515625" stop-color="#5DA5E8"/>
<stop offset="1" stop-color="#48E4EE"/>
</linearGradient>
<linearGradient id="paint1_linear" x1="486.833" y1="562.452" x2="486.833" y2="917" gradientUnits="userSpaceOnUse">
<stop stop-color="white" stop-opacity="0"/>
<stop offset="1" stop-color="white"/>
</linearGradient>
</defs>
</svg>
