<svg width="1920" height="2218" viewBox="0 0 1920 2218" fill="none" xmlns="http://www.w3.org/2000/svg">
<rect width="1920" height="600" transform="matrix(1 8.74228e-08 8.74228e-08 -1 -6.10352e-05 619)" fill="url(#paint0_linear)"/>
<rect x="1920" y="617" width="1920" height="600" transform="rotate(180 1920 617)" fill="url(#paint1_linear)"/>
<path fill-rule="evenodd" clip-rule="evenodd" d="M1231.54 506.169C1250.67 517.214 1281.69 517.214 1300.82 506.169L1576.61 346.959C1595.74 335.914 1626.76 335.914 1645.89 346.959L2053.2 582.097C2072.33 593.142 2072.33 611.049 2053.2 622.094L1708.21 821.256L1708.13 821.302L1300.82 1056.44C1281.69 1067.49 1250.67 1067.49 1231.54 1056.44L802.2 808.583L555.614 950.938C536.482 961.983 505.462 961.983 486.33 950.938L228.93 802.341C217.323 795.64 212.758 786.414 215.235 777.726L-8.88648 648.341C-28.0186 637.296 -28.0187 619.389 -8.88658 608.344L176.747 501.177C195.879 490.132 226.898 490.132 246.03 501.177L429.035 606.826C448.167 617.871 479.186 617.871 498.319 606.826L742.513 465.852C761.645 454.807 792.665 454.807 811.797 465.852L884.759 507.974C903.892 519.019 934.911 519.019 954.043 507.974L1059.71 446.971C1078.84 435.926 1109.86 435.926 1128.99 446.971L1231.54 506.169Z" fill="#12193D"/>
<path fill-rule="evenodd" clip-rule="evenodd" d="M798.304 1711.63C779.172 1700.59 748.152 1700.59 729.021 1711.63L453.242 1870.86C434.11 1881.9 403.091 1881.9 383.959 1870.86L-23.3568 1635.74C-42.4893 1624.69 -42.49 1606.78 -23.3583 1595.74L321.623 1396.56L321.702 1396.52L729 1161.36C748.132 1150.32 779.151 1150.32 798.283 1161.36L1227.63 1409.2L1474.21 1266.84C1493.34 1255.79 1524.36 1255.79 1543.5 1266.84L1800.9 1415.42C1812.51 1422.12 1817.07 1431.35 1814.6 1440.04L2038.72 1569.41C2057.86 1580.46 2057.86 1598.37 2038.73 1609.41L1853.1 1716.58C1833.96 1727.63 1802.94 1727.63 1783.81 1716.59L1600.8 1610.95C1581.67 1599.9 1550.65 1599.9 1531.52 1610.95L1287.33 1751.93C1268.2 1762.98 1237.18 1762.98 1218.05 1751.93L1145.08 1709.82C1125.95 1698.77 1094.93 1698.77 1075.8 1709.82L970.133 1770.82C951.002 1781.87 919.982 1781.87 900.85 1770.83L798.304 1711.63Z" fill="#12193D"/>
<rect x="6.10352e-05" y="617" width="1920" height="981" fill="#12193D"/>
<defs>
<linearGradient id="paint0_linear" x1="4.12295e-06" y1="348.6" x2="1920.01" y2="343.183" gradientUnits="userSpaceOnUse">
<stop stop-color="#4D59A1"/>
<stop offset="0.515625" stop-color="#5DA5E8"/>
<stop offset="1" stop-color="#48E4EE"/>
</linearGradient>
<linearGradient id="paint1_linear" x1="2921" y1="512.6" x2="2921" y2="1217" gradientUnits="userSpaceOnUse">
<stop stop-color="white" stop-opacity="0"/>
<stop offset="1" stop-color="white"/>
</linearGradient>
</defs>
</svg>
