<svg width="357" height="229" viewBox="0 0 357 229" fill="none" xmlns="http://www.w3.org/2000/svg">
<path fill-rule="evenodd" clip-rule="evenodd" d="M194.5 183.5C212.392 184.512 232.956 178.707 238.152 169.348C292.667 168.031 335 158.304 335 146.5C335 138.544 315.764 131.53 286.527 127.401C287.491 126.306 288 125.169 288 124C288 115.44 260.689 108.5 227 108.5C220.87 108.5 214.952 108.73 209.371 109.158C198.066 103.937 181.33 103 159.5 103C124.706 103 94 109.231 94 120C94 121.232 94.3688 122.437 95.0741 123.605C93.7369 123.536 92.3775 123.5 91 123.5C71.1177 123.5 55 130.888 55 140C55 149.113 71.1177 156.5 91 156.5C92.9019 156.5 94.7694 156.433 96.5916 156.303C100.019 167.196 117.925 175.5 139.5 175.5C147.67 175.5 155.314 174.309 161.845 172.238C172.5 179.5 181.032 182.739 194.5 183.5Z" fill="url(#paint0_linear)"/>
<path d="M231.715 166.106L231.854 165.856L232.14 165.849C259.376 165.19 283.552 162.432 300.905 158.37C309.586 156.338 316.533 153.987 321.297 151.424C323.679 150.143 325.492 148.822 326.704 147.482C327.913 146.144 328.5 144.816 328.5 143.5C328.5 141.728 327.43 139.926 325.222 138.128C323.02 136.334 319.757 134.605 315.548 132.982C307.135 129.737 295.059 126.958 280.458 124.896L279.539 124.766L280.152 124.07C281.061 123.039 281.5 122.013 281.5 121C281.5 119.142 280.007 117.233 276.949 115.396C273.922 113.577 269.508 111.922 264.01 110.525C253.022 107.733 237.816 106 221 106C214.883 106 208.977 106.23 203.409 106.656L203.279 106.666L203.161 106.611C191.973 101.445 175.351 100.5 153.5 100.5C136.126 100.5 119.794 102.056 107.82 104.948C101.828 106.394 96.9607 108.168 93.6028 110.227C90.2291 112.296 88.5 114.573 88.5 117C88.5 118.127 88.8366 119.244 89.5022 120.346L89.989 121.153L89.0484 121.104C87.7197 121.036 86.3689 121 85 121C75.114 121 66.1881 122.838 59.7525 125.788C53.2732 128.757 49.5 132.758 49.5 137C49.5 141.242 53.2732 145.243 59.7525 148.213C66.1881 151.163 75.114 153 85 153C86.8901 153 88.7457 152.933 90.556 152.804L90.95 152.776L91.0686 153.152C92.7202 158.402 97.9013 163.119 105.446 166.531C112.974 169.935 122.772 172 133.5 172C141.623 172 149.216 170.816 155.694 168.761L155.926 168.688L156.127 168.825C166.713 176.04 175.158 179.246 188.528 180.001C197.416 180.503 206.97 179.312 214.939 176.835C222.939 174.349 229.215 170.608 231.715 166.106Z" stroke="#189EE9"/>
<path d="M188.5 133C188.5 133.025 188.489 133.107 188.346 133.247C188.201 133.388 187.961 133.548 187.607 133.716C186.902 134.049 185.849 134.363 184.509 134.631C181.835 135.166 178.119 135.5 174 135.5C169.881 135.5 166.165 135.166 163.491 134.631C162.151 134.363 161.098 134.049 160.393 133.716C160.039 133.548 159.799 133.388 159.654 133.247C159.511 133.107 159.5 133.025 159.5 133C159.5 132.975 159.511 132.893 159.654 132.753C159.799 132.612 160.039 132.452 160.393 132.284C161.098 131.951 162.151 131.637 163.491 131.369C166.165 130.834 169.881 130.5 174 130.5C178.119 130.5 181.835 130.834 184.509 131.369C185.849 131.637 186.902 131.951 187.607 132.284C187.961 132.452 188.201 132.612 188.346 132.753C188.489 132.893 188.5 132.975 188.5 133Z" stroke="url(#paint1_linear)"/>
<path d="M195.5 133C195.5 133.186 195.419 133.409 195.181 133.673C194.941 133.94 194.563 134.222 194.034 134.506C192.978 135.073 191.417 135.6 189.446 136.048C185.51 136.942 180.049 137.5 174 137.5C167.951 137.5 162.49 136.942 158.554 136.048C156.583 135.6 155.022 135.073 153.966 134.506C153.437 134.222 153.059 133.94 152.819 133.673C152.581 133.409 152.5 133.186 152.5 133C152.5 132.814 152.581 132.591 152.819 132.327C153.059 132.06 153.437 131.778 153.966 131.494C155.022 130.927 156.583 130.4 158.554 129.952C162.49 129.058 167.951 128.5 174 128.5C180.049 128.5 185.51 129.058 189.446 129.952C191.417 130.4 192.978 130.927 194.034 131.494C194.563 131.778 194.941 132.06 195.181 132.327C195.419 132.591 195.5 132.814 195.5 133Z" stroke="url(#paint2_linear)"/>
<path d="M207.5 133C207.5 133.307 207.351 133.659 206.955 134.058C206.557 134.459 205.943 134.869 205.109 135.275C203.443 136.086 201 136.83 197.941 137.46C191.83 138.718 183.366 139.5 174 139.5C164.634 139.5 156.17 138.718 150.059 137.46C147 136.83 144.557 136.086 142.891 135.275C142.057 134.869 141.443 134.459 141.045 134.058C140.649 133.659 140.5 133.307 140.5 133C140.5 132.693 140.649 132.341 141.045 131.942C141.443 131.541 142.057 131.131 142.891 130.725C144.557 129.914 147 129.17 150.059 128.54C156.17 127.282 164.634 126.5 174 126.5C183.366 126.5 191.83 127.282 197.941 128.54C201 129.17 203.443 129.914 205.109 130.725C205.943 131.131 206.557 131.541 206.955 131.942C207.351 132.341 207.5 132.693 207.5 133Z" stroke="url(#paint3_linear)"/>
<path d="M178 119C178 121.209 176.209 123 174 123C171.791 123 170 121.209 170 119C170 116.791 172 112.5 174 110.5C174 112 178 116.791 178 119Z" fill="#189EE9"/>
<path d="M221.5 83.5003C225.5 83 230.553 75.345 230.001 66.3277C229.448 57.3103 224.5 51 220.5 50.5001" stroke="#189EE9" stroke-opacity="0.2"/>
<path d="M224.5 83.4996C229.5 82.9996 233.374 75.3441 232.822 66.3267C232.269 57.3094 228 50.4998 224 50.4998" stroke="#189EE9" stroke-opacity="0.2"/>
<path d="M229 82.9996C233 82.4996 236.375 75.3445 235.822 66.3272C235.27 57.3098 230.5 49.9994 227.5 49.9994" stroke="#189EE9" stroke-opacity="0.2"/>
<path d="M174 120.5C173.724 120.5 173.5 120.724 173.5 121C173.5 121.276 173.724 121.5 174 121.5L174 120.5ZM176.5 119C176.5 118.724 176.276 118.5 176 118.5C175.724 118.5 175.5 118.724 175.5 119H176.5ZM174 121.5C174.553 121.5 175.186 121.392 175.687 120.99C176.21 120.572 176.5 119.91 176.5 119H175.5C175.5 119.69 175.29 120.028 175.063 120.21C174.814 120.408 174.447 120.5 174 120.5L174 121.5Z" fill="white"/>
<path d="M176 133C176.309 130.229 180.297 126.678 180.947 128.498C181.565 130.229 176.618 130.229 176 133Z" fill="#189EE9"/>
<path d="M171.904 132.493C171.939 132.657 171.971 132.826 172 133C171.971 132.823 171.939 132.654 171.904 132.493C170.743 127 166.5 127.029 166.5 128C166.5 130.619 170.68 126.722 171.904 132.493Z" fill="#189EE9"/>
<path d="M172 133C171.971 132.826 171.939 132.657 171.904 132.493C171.939 132.654 171.971 132.823 172 133Z" fill="#189EE9"/>
<path d="M145 88L356.5 75.5" stroke="url(#paint4_linear)"/>
<path d="M144 54L326 45.5" stroke="url(#paint5_linear)"/>
<mask id="path-15-inside-1" fill="white">
<path fill-rule="evenodd" clip-rule="evenodd" d="M173.357 78.2386C173.32 78.2421 173.284 78.2456 173.247 78.2493C167.486 78.8211 162.972 80.9221 163.128 82.9519L163.038 82.9582C159.151 83.2362 156.048 84.1315 156.107 84.9578C156.118 85.1154 156.244 85.2591 156.466 85.3865C154.309 85.7725 152.88 86.3185 153 88L172.688 86.8171C172.904 86.9971 173 87.2329 173 87.5C173 88.0247 172.587 88.3234 172.195 88.6074C171.839 88.8647 171.5 89.1099 171.5 89.5C171.5 90 171.5 90.5 172.5 91C173.5 91.5 174.425 89.925 174 89.5C173.293 88.7929 173.336 88.5858 173.422 88.1716C173.457 88 173.5 87.7929 173.5 87.5C173.5 87.1992 173.564 86.9545 173.693 86.7568L196.5 85.3865C199 85.2077 198.776 83.859 197.977 83.2171C197 82.4321 195 82 192.124 82.6282C192.153 82.5633 192.167 82.4979 192.165 82.4321C192.144 81.4475 188.672 80.6986 184.025 80.5837C183.574 79.3018 181.188 78.4105 177.932 78.1697L179 75.5L175.5 70L179 65L173 57L175.5 65L172.5 70L175 75.5L173.357 78.2386Z"/>
</mask>
<path fill-rule="evenodd" clip-rule="evenodd" d="M173.357 78.2386C173.32 78.2421 173.284 78.2456 173.247 78.2493C167.486 78.8211 162.972 80.9221 163.128 82.9519L163.038 82.9582C159.151 83.2362 156.048 84.1315 156.107 84.9578C156.118 85.1154 156.244 85.2591 156.466 85.3865C154.309 85.7725 152.88 86.3185 153 88L172.688 86.8171C172.904 86.9971 173 87.2329 173 87.5C173 88.0247 172.587 88.3234 172.195 88.6074C171.839 88.8647 171.5 89.1099 171.5 89.5C171.5 90 171.5 90.5 172.5 91C173.5 91.5 174.425 89.925 174 89.5C173.293 88.7929 173.336 88.5858 173.422 88.1716C173.457 88 173.5 87.7929 173.5 87.5C173.5 87.1992 173.564 86.9545 173.693 86.7568L196.5 85.3865C199 85.2077 198.776 83.859 197.977 83.2171C197 82.4321 195 82 192.124 82.6282C192.153 82.5633 192.167 82.4979 192.165 82.4321C192.144 81.4475 188.672 80.6986 184.025 80.5837C183.574 79.3018 181.188 78.4105 177.932 78.1697L179 75.5L175.5 70L179 65L173 57L175.5 65L172.5 70L175 75.5L173.357 78.2386Z" fill="#FFD8DA"/>
<path d="M173.247 78.2493L173.346 79.2444H173.346L173.247 78.2493ZM173.357 78.2386L173.452 79.234L173.955 79.186L174.214 78.7531L173.357 78.2386ZM163.128 82.9519L163.198 83.9494L164.202 83.8789L164.125 82.8753L163.128 82.9519ZM163.038 82.9582L162.968 81.9607L162.966 81.9608L163.038 82.9582ZM156.107 84.9578L155.11 85.0291L155.11 85.0291L156.107 84.9578ZM156.466 85.3865L156.643 86.3709L159.353 85.8862L156.963 84.5186L156.466 85.3865ZM153 88L152.003 88.0714L152.073 89.0575L153.06 88.9982L153 88ZM172.688 86.8171L173.329 86.0494L173.024 85.7952L172.628 85.8189L172.688 86.8171ZM172.195 88.6074L171.608 87.7972L171.608 87.7972L172.195 88.6074ZM174 89.5L174.707 88.7929H174.707L174 89.5ZM173.422 88.1716L174.401 88.3744V88.3744L173.422 88.1716ZM173.693 86.7568L173.633 85.7586L173.131 85.7888L172.856 86.2107L173.693 86.7568ZM196.5 85.3865L196.56 86.3848L196.571 86.384L196.5 85.3865ZM197.977 83.2171L198.603 82.4375L197.977 83.2171ZM192.124 82.6282L191.21 82.2233L190.411 84.0259L192.337 83.6052L192.124 82.6282ZM192.165 82.4321L193.165 82.4101V82.4101L192.165 82.4321ZM184.025 80.5837L183.082 80.9159L183.311 81.5664L184 81.5834L184.025 80.5837ZM177.932 78.1697L177.004 77.7983L176.496 79.0663L177.858 79.167L177.932 78.1697ZM179 75.5L179.928 75.8714L180.119 75.3955L179.844 74.9631L179 75.5ZM175.5 70L174.681 69.4265L174.298 69.9736L174.656 70.5369L175.5 70ZM179 65L179.819 65.5735L180.235 64.9798L179.8 64.4L179 65ZM173 57L173.8 56.4L172.046 57.2983L173 57ZM175.5 65L176.357 65.5145L176.588 65.1299L176.454 64.7017L175.5 65ZM172.5 70L171.643 69.4855L171.372 69.9358L171.59 70.4138L172.5 70ZM175 75.5L175.857 76.0145L176.128 75.5642L175.91 75.0862L175 75.5ZM173.346 79.2444C173.381 79.2409 173.417 79.2374 173.452 79.234L173.262 77.2431C173.224 77.2467 173.186 77.2504 173.148 77.2542L173.346 79.2444ZM164.125 82.8753C164.118 82.7751 164.156 82.5331 164.541 82.1482C164.919 81.7699 165.535 81.3584 166.39 80.9606C168.093 80.1688 170.547 79.5222 173.346 79.2444L173.148 77.2542C170.186 77.5482 167.502 78.238 165.547 79.1471C164.574 79.5997 163.73 80.1299 163.126 80.7342C162.529 81.3319 162.061 82.1137 162.131 83.0285L164.125 82.8753ZM163.108 83.9558L163.198 83.9494L163.058 81.9543L162.968 81.9607L163.108 83.9558ZM157.105 84.8864C157.121 85.1237 157.013 85.2661 156.997 85.2863C156.983 85.3022 157.01 85.2665 157.13 85.195C157.367 85.054 157.777 84.8841 158.37 84.7132C159.539 84.3759 161.214 84.0912 163.109 83.9557L162.966 81.9608C160.975 82.1032 159.155 82.4051 157.815 82.7916C157.154 82.9824 156.557 83.2088 156.107 83.4767C155.883 83.6097 155.647 83.7816 155.46 84.0057C155.27 84.2341 155.078 84.5853 155.11 85.0291L157.105 84.8864ZM156.963 84.5186C156.915 84.491 156.932 84.4917 156.971 84.5371C157.015 84.5898 157.092 84.7091 157.105 84.8864L155.11 85.0291C155.158 85.7035 155.668 86.0815 155.97 86.2544L156.963 84.5186ZM153.998 87.9286C153.978 87.6571 154.024 87.4964 154.077 87.3932C154.131 87.2881 154.229 87.1719 154.421 87.0476C154.848 86.7723 155.563 86.5639 156.643 86.3709L156.29 84.4022C155.212 84.595 154.134 84.8527 153.337 85.3672C152.917 85.6379 152.545 85.9976 152.298 86.4798C152.049 86.964 151.962 87.5021 152.003 88.0714L153.998 87.9286ZM172.628 85.8189L152.94 87.0018L153.06 88.9982L172.748 87.8153L172.628 85.8189ZM174 87.5C174 86.9658 173.794 86.4373 173.329 86.0494L172.047 87.5849C172.046 87.5842 172.041 87.579 172.033 87.5686C172.025 87.5582 172.017 87.5456 172.011 87.5319C171.998 87.5031 172 87.4878 172 87.5H174ZM172.781 89.4176C173.074 89.2056 174 88.6187 174 87.5H172C172 87.4948 172.002 87.4798 172.008 87.4655C172.013 87.4549 172.012 87.4623 171.989 87.4891C171.964 87.5175 171.924 87.557 171.856 87.6116C171.787 87.6675 171.71 87.7234 171.608 87.7972L172.781 89.4176ZM172.5 89.5C172.5 89.5538 172.487 89.6063 172.468 89.647C172.452 89.6824 172.44 89.6923 172.454 89.6762C172.47 89.6592 172.501 89.6293 172.56 89.5822C172.62 89.5343 172.688 89.4846 172.781 89.4176L171.608 87.7972C171.452 87.9101 171.186 88.0974 170.974 88.3315C170.738 88.5905 170.5 88.9783 170.5 89.5H172.5ZM172.947 90.1056C172.754 90.0092 172.646 89.9303 172.586 89.8776C172.531 89.8285 172.52 89.803 172.519 89.8028C172.515 89.7931 172.5 89.7752 172.5 89.5H170.5C170.5 89.7248 170.485 90.2069 170.731 90.6972C170.986 91.208 171.44 91.5878 172.053 91.8944L172.947 90.1056ZM173.293 90.2071C173.166 90.0799 173.124 89.942 173.111 89.8671C173.1 89.797 173.11 89.7625 173.108 89.7753C173.106 89.7844 173.098 89.8122 173.078 89.8536C173.058 89.8939 173.031 89.937 172.999 89.9776C172.928 90.0674 172.87 90.0979 172.86 90.1017C172.86 90.1018 172.876 90.0962 172.902 90.0971C172.93 90.098 172.947 90.1056 172.947 90.1056L172.053 91.8944C173.178 92.457 174.139 91.762 174.57 91.2161C174.802 90.9216 174.985 90.563 175.064 90.1926C175.132 89.8712 175.173 89.2586 174.707 88.7929L173.293 90.2071ZM172.442 87.9688C172.405 88.1511 172.299 88.5682 172.469 89.0553C172.616 89.4774 172.928 89.8424 173.293 90.2071L174.707 88.7929C174.548 88.6336 174.454 88.5251 174.399 88.452C174.345 88.38 174.347 88.3662 174.358 88.3966C174.373 88.4398 174.376 88.486 174.375 88.5111C174.374 88.5168 174.374 88.5117 174.378 88.4875C174.383 88.4609 174.389 88.4298 174.401 88.3744L172.442 87.9688ZM172.5 87.5C172.5 87.6858 172.475 87.81 172.442 87.9688L174.401 88.3744C174.439 88.19 174.5 87.9 174.5 87.5H172.5ZM172.856 86.2107C172.597 86.6078 172.5 87.0547 172.5 87.5H174.5C174.5 87.4205 174.509 87.3705 174.516 87.3422C174.523 87.3157 174.529 87.3054 174.531 87.3028L172.856 86.2107ZM196.44 84.3883L173.633 85.7586L173.753 87.7549L196.56 86.3847L196.44 84.3883ZM197.351 83.9967C197.442 84.0701 197.495 84.1483 197.516 84.1964C197.535 84.2399 197.509 84.2092 197.534 84.14C197.561 84.0642 197.592 84.096 197.445 84.1709C197.286 84.2516 196.975 84.35 196.429 84.3891L196.571 86.384C197.894 86.2894 199.045 85.856 199.418 84.811C199.782 83.7889 199.154 82.8803 198.603 82.4375L197.351 83.9967ZM192.337 83.6052C195.08 83.0061 196.714 83.485 197.351 83.9967L198.603 82.4375C197.286 81.3793 194.92 80.9939 191.911 81.6512L192.337 83.6052ZM191.165 82.4542C191.163 82.3589 191.185 82.2791 191.21 82.2233L193.038 83.0331C193.121 82.8476 193.17 82.637 193.165 82.4101L191.165 82.4542ZM184 81.5834C186.286 81.6399 188.246 81.8522 189.611 82.1577C190.302 82.3122 190.785 82.4786 191.073 82.6296C191.141 82.6653 191.19 82.6958 191.223 82.7196C191.257 82.7437 191.268 82.7559 191.265 82.753C191.26 82.7471 191.17 82.644 191.165 82.4542L193.165 82.4101C193.155 81.9742 192.952 81.6322 192.735 81.3965C192.523 81.1669 192.259 80.9933 192.002 80.8586C191.488 80.5886 190.808 80.376 190.048 80.2059C188.51 79.862 186.411 79.6424 184.05 79.584L184 81.5834ZM177.858 79.167C179.425 79.2828 180.729 79.5525 181.667 79.918C182.662 80.3058 183.008 80.7059 183.082 80.9159L184.968 80.2515C184.591 79.1796 183.518 78.4931 182.393 78.0546C181.211 77.5938 179.695 77.2974 178.006 77.1725L177.858 79.167ZM178.861 78.5411L179.928 75.8714L178.072 75.1286L177.004 77.7983L178.861 78.5411ZM179.844 74.9631L176.344 69.4631L174.656 70.5369L178.156 76.0369L179.844 74.9631ZM176.319 70.5735L179.819 65.5735L178.181 64.4265L174.681 69.4265L176.319 70.5735ZM179.8 64.4L173.8 56.4L172.2 57.6L178.2 65.6L179.8 64.4ZM172.046 57.2983L174.546 65.2983L176.454 64.7017L173.954 56.7017L172.046 57.2983ZM174.643 64.4855L171.643 69.4855L173.357 70.5145L176.357 65.5145L174.643 64.4855ZM171.59 70.4138L174.09 75.9138L175.91 75.0862L173.41 69.5862L171.59 70.4138ZM174.143 74.9855L172.499 77.7241L174.214 78.7531L175.857 76.0145L174.143 74.9855Z" fill="#ED3B45" mask="url(#path-15-inside-1)"/>
<path d="M150.47 70.5215C150.844 76.6281 149.366 82.2479 146.698 86.3962C144.03 90.5448 140.196 93.1924 135.846 93.4591C131.495 93.7257 127.367 91.566 124.212 87.7743C121.058 83.9828 118.904 78.5856 118.53 72.479C118.156 66.3724 119.634 60.7526 122.302 56.6043C124.97 52.4557 128.804 49.8081 133.154 49.5415C137.505 49.2748 141.633 51.4345 144.788 55.2262C147.942 59.0177 150.096 64.4149 150.47 70.5215Z" fill="white" stroke="#189EE9"/>
<path d="M147.816 70.5215C148.19 76.6281 146.712 82.2479 144.044 86.3962C141.375 90.5448 137.542 93.1924 133.191 93.4591C128.841 93.7257 124.712 91.566 121.558 87.7743C118.403 83.9828 116.25 78.5856 115.875 72.479C115.501 66.3724 116.979 60.7526 119.647 56.6043C122.315 52.4557 126.149 49.8081 130.5 49.5415C134.85 49.2748 138.979 51.4345 142.133 55.2262C145.288 59.0177 147.441 64.4149 147.816 70.5215Z" fill="white" stroke="#189EE9"/>
<path d="M132.68 89.5722C139.633 89.146 144.782 80.8376 144.18 71.0147C143.578 61.1919 137.453 53.5743 130.5 54.0004L12.5 59L1 98.5L132.68 89.5722Z" fill="white" stroke="url(#paint6_linear)"/>
<defs>
<linearGradient id="paint0_linear" x1="65" y1="169" x2="335" y2="121.5" gradientUnits="userSpaceOnUse">
<stop stop-color="#CEEAFA"/>
<stop offset="1" stop-color="#CEEAFA" stop-opacity="0"/>
</linearGradient>
<linearGradient id="paint1_linear" x1="174" y1="130" x2="174" y2="136" gradientUnits="userSpaceOnUse">
<stop stop-color="#189EE9" stop-opacity="0"/>
<stop offset="0.515625" stop-color="#189EE9"/>
<stop offset="1" stop-color="#189EE9" stop-opacity="0"/>
</linearGradient>
<linearGradient id="paint2_linear" x1="174" y1="128" x2="174" y2="138" gradientUnits="userSpaceOnUse">
<stop stop-color="#189EE9" stop-opacity="0"/>
<stop offset="0.515625" stop-color="#189EE9"/>
<stop offset="1" stop-color="#189EE9" stop-opacity="0"/>
</linearGradient>
<linearGradient id="paint3_linear" x1="174" y1="126" x2="174" y2="140" gradientUnits="userSpaceOnUse">
<stop stop-color="#189EE9" stop-opacity="0"/>
<stop offset="0.515625" stop-color="#189EE9"/>
<stop offset="1" stop-color="#189EE9" stop-opacity="0"/>
</linearGradient>
<linearGradient id="paint4_linear" x1="145" y1="87.9999" x2="360" y2="69.9998" gradientUnits="userSpaceOnUse">
<stop stop-color="#189EE9"/>
<stop offset="1" stop-color="#189EE9" stop-opacity="0"/>
</linearGradient>
<linearGradient id="paint5_linear" x1="142" y1="52.5" x2="355.5" y2="39.9995" gradientUnits="userSpaceOnUse">
<stop stop-color="#189EE9"/>
<stop offset="1" stop-color="#189EE9" stop-opacity="0"/>
</linearGradient>
<linearGradient id="paint6_linear" x1="23.5" y1="60.5" x2="130.5" y2="54.5" gradientUnits="userSpaceOnUse">
<stop stop-color="#189EE9" stop-opacity="0"/>
<stop offset="1" stop-color="#189EE9"/>
</linearGradient>
</defs>
</svg>
