<svg width="356" height="229" viewBox="0 0 356 229" fill="none" xmlns="http://www.w3.org/2000/svg">
<path d="M116 148.5L48.5 128L62 106L123.5 120.5L116 148.5Z" fill="url(#paint0_linear)" stroke="url(#paint1_linear)"/>
<path d="M161.812 143.039C161.11 150.6 158.968 157.402 155.377 162.145C151.802 166.866 146.789 169.557 140.245 168.949C137.848 168.727 132.137 167.91 129.105 166.931C118.096 161.409 114.416 150.573 115.565 138.207C116.635 126.681 122.87 119.154 132.15 116.068C133.376 115.66 135.381 115.337 137.535 115.116C139.668 114.898 141.904 114.785 143.591 114.784C150.154 115.4 155.036 118.7 158.119 123.705C161.214 128.73 162.512 135.502 161.812 143.039Z" fill="#CEEAFA" stroke="#189EE9"/>
<path d="M166.941 144.066C165.546 159.08 153.672 170.146 140.531 168.926C127.391 167.705 117.757 154.642 119.152 139.627C120.546 124.613 132.42 113.547 145.561 114.767C158.702 115.988 168.335 129.051 166.941 144.066Z" fill="white" stroke="#189EE9"/>
<path d="M135.911 121.358L131.531 124.483L132.173 128.789L135.41 130.865L140.024 123.944L135.911 121.358Z" fill="white"/>
<path d="M131.531 124.483L131.241 124.076L130.991 124.254L131.037 124.557L131.531 124.483ZM135.911 121.358L136.177 120.935L135.894 120.756L135.621 120.951L135.911 121.358ZM140.024 123.944L140.44 124.222L140.725 123.794L140.29 123.521L140.024 123.944ZM135.41 130.865L135.14 131.286L135.826 131.143L135.41 130.865ZM132.173 128.789L131.678 128.862L131.712 129.087L131.903 129.21L132.173 128.789ZM131.822 124.89L136.202 121.765L135.621 120.951L131.241 124.076L131.822 124.89ZM135.645 121.781L139.758 124.367L140.29 123.521L136.177 120.935L135.645 121.781ZM135.68 130.444L132.443 128.368L131.903 129.21L135.14 131.286L135.68 130.444ZM132.667 128.715L132.026 124.41L131.037 124.557L131.678 128.862L132.667 128.715ZM135.826 131.143L140.44 124.222L139.608 123.667L134.994 130.588L135.826 131.143Z" fill="#189EE9"/>
<path d="M130.048 154.185L129.082 159.418L132.497 162.038L136.227 161.289L134.75 153.196L130.048 154.185Z" fill="white"/>
<path d="M129.082 159.418L128.59 159.327L128.535 159.628L128.778 159.814L129.082 159.418ZM130.048 154.185L129.945 153.695L129.617 153.764L129.556 154.094L130.048 154.185ZM134.75 153.196L135.242 153.107L135.15 152.601L134.647 152.707L134.75 153.196ZM136.227 161.289L136.325 161.779L136.719 161.199L136.227 161.289ZM132.497 162.038L132.193 162.434L132.373 162.573L132.596 162.528L132.497 162.038ZM129.574 159.508L130.54 154.275L129.556 154.094L128.59 159.327L129.574 159.508ZM130.151 154.674L134.853 153.686L134.647 152.707L129.945 153.695L130.151 154.674ZM136.128 160.799L132.399 161.547L132.596 162.528L136.325 161.779L136.128 160.799ZM132.802 161.641L129.386 159.021L128.778 159.814L132.193 162.434L132.802 161.641ZM136.719 161.199L135.242 153.107L134.258 153.286L135.735 161.379L136.719 161.199Z" fill="#189EE9"/>
<path d="M132.1 159.497L134.34 125.904C134.423 124.655 135.621 123.788 136.833 124.1L152 128L149.5 168.5C149.5 168.5 139.631 163.923 133.407 161.527C132.575 161.206 132.041 160.387 132.1 159.497Z" fill="#CEEAFA"/>
<path d="M134.34 125.904L134.839 125.937L134.34 125.904ZM132.1 159.497L132.599 159.531H132.599L132.1 159.497ZM133.407 161.527L133.228 161.993L133.228 161.993L133.407 161.527ZM149.5 168.5L149.29 168.954C149.44 169.023 149.614 169.014 149.756 168.93C149.898 168.845 149.989 168.696 149.999 168.531L149.5 168.5ZM152 128L152.499 128.031L152.524 127.619L152.125 127.516L152 128ZM136.833 124.1L136.958 123.616L136.833 124.1ZM133.841 125.871L131.601 159.464L132.599 159.531L134.839 125.937L133.841 125.871ZM133.228 161.993C136.327 163.186 140.34 164.925 143.584 166.369C145.205 167.09 146.632 167.736 147.653 168.202C148.164 168.435 148.573 168.623 148.855 168.753C148.995 168.818 149.104 168.868 149.178 168.902C149.215 168.919 149.243 168.932 149.261 168.941C149.271 168.945 149.278 168.948 149.283 168.95C149.285 168.951 149.287 168.952 149.288 168.953C149.288 168.953 149.289 168.953 149.289 168.953C149.289 168.953 149.289 168.954 149.29 168.954C149.29 168.954 149.29 168.954 149.5 168.5C149.71 168.046 149.71 168.046 149.71 168.046C149.71 168.046 149.71 168.046 149.71 168.046C149.71 168.046 149.709 168.046 149.708 168.046C149.707 168.045 149.705 168.044 149.703 168.043C149.698 168.041 149.691 168.037 149.682 168.033C149.663 168.024 149.634 168.011 149.597 167.994C149.523 167.96 149.414 167.909 149.273 167.844C148.99 167.714 148.58 167.526 148.068 167.292C147.045 166.825 145.615 166.178 143.991 165.455C140.744 164.011 136.711 162.263 133.587 161.06L133.228 161.993ZM149.999 168.531L152.499 128.031L151.501 127.969L149.001 168.469L149.999 168.531ZM152.125 127.516L136.958 123.616L136.709 124.584L151.875 128.484L152.125 127.516ZM131.601 159.464C131.527 160.577 132.196 161.596 133.228 161.993L133.587 161.06C132.955 160.816 132.555 160.197 132.599 159.531L131.601 159.464ZM134.839 125.937C134.901 125 135.799 124.35 136.709 124.584L136.958 123.616C135.442 123.226 133.945 124.309 133.841 125.871L134.839 125.937Z" fill="#189EE9"/>
<path d="M167.5 124H136.5L152 128H177L167.5 124Z" fill="#CEEAFA" stroke="#189EE9"/>
<path d="M163 128H152L149.5 168.5L161.5 167L163 128Z" fill="white"/>
<path d="M152 128V127.5H151.53L151.501 127.969L152 128ZM163 128L163.5 128.019L163.52 127.5H163V128ZM149.5 168.5L149.001 168.469C148.992 168.618 149.049 168.763 149.158 168.864C149.266 168.966 149.414 169.015 149.562 168.996L149.5 168.5ZM161.5 167L161.562 167.496L161.983 167.443L162 167.019L161.5 167ZM152 128.5H163V127.5H152V128.5ZM151.501 127.969L149.001 168.469L149.999 168.531L152.499 128.031L151.501 127.969ZM149.562 168.996L161.562 167.496L161.438 166.504L149.438 168.004L149.562 168.996ZM162 167.019L163.5 128.019L162.5 127.981L161 166.981L162 167.019Z" fill="#189EE9"/>
<path d="M168.5 123.5L164 122C159.001 121.833 150.003 121.6 150 122L157.5 124L168.5 123.5Z" fill="#CEEAFA"/>
<path d="M150 121.5H156.5" stroke="#189EE9"/>
<path d="M149.61 122.013C149.71 121.78 149.968 121.659 150.211 121.73L157.141 123.769C157.354 123.831 157.5 124.026 157.5 124.248V126.156C157.5 126.491 157.177 126.731 156.856 126.635L149.217 124.343C148.931 124.257 148.783 123.942 148.901 123.667L149.61 122.013Z" fill="#CEEAFA" stroke="#189EE9"/>
<path d="M170.566 126.505L157.5 126.643V123.781L170.925 123.991L170.566 126.505Z" fill="white" stroke="#189EE9"/>
<path d="M145.5 93.5L164 94L187.5 102.5L164 100.5L145.5 93.5Z" fill="#FFD8DA" stroke="#ED3B45"/>
<path d="M164 94L145.5 93.5L144 89.5L163 90L164 94Z" fill="#FFD8DA"/>
<path d="M145.5 93.5L145.032 93.6756C145.103 93.8661 145.283 93.9943 145.486 93.9998L145.5 93.5ZM164 94L163.986 94.4998L164.645 94.5176L164.485 93.8787L164 94ZM163 90L163.485 89.8787L163.393 89.5102L163.013 89.5002L163 90ZM144 89.5L144.013 89.0002C143.847 88.9958 143.689 89.0744 143.593 89.2098C143.496 89.3453 143.473 89.5198 143.532 89.6756L144 89.5ZM145.486 93.9998L163.986 94.4998L164.014 93.5002L145.514 93.0002L145.486 93.9998ZM164.485 93.8787L163.485 89.8787L162.515 90.1213L163.515 94.1213L164.485 93.8787ZM163.013 89.5002L144.013 89.0002L143.987 89.9998L162.987 90.4998L163.013 89.5002ZM143.532 89.6756L145.032 93.6756L145.968 93.3244L144.468 89.3244L143.532 89.6756Z" fill="#ED3B45"/>
<path d="M172 64L163 90L164 94L188 102.5L198.5 71L175 60L172 64Z" fill="white"/>
<path d="M163 90L162.528 89.8364L162.479 89.977L162.515 90.1213L163 90ZM172 64L171.6 63.7L171.553 63.7626L171.528 63.8364L172 64ZM175 60L175.212 59.5472C174.998 59.4468 174.742 59.5106 174.6 59.7L175 60ZM164 94L163.515 94.1213L163.58 94.3817L163.833 94.4713L164 94ZM188 102.5L187.833 102.971L188.313 103.141L188.474 102.658L188 102.5ZM198.5 71L198.974 71.1581L199.115 70.7359L198.712 70.5472L198.5 71ZM163.472 90.1636L172.472 64.1636L171.528 63.8364L162.528 89.8364L163.472 90.1636ZM174.6 59.7L171.6 63.7L172.4 64.3L175.4 60.3L174.6 59.7ZM162.515 90.1213L163.515 94.1213L164.485 93.8787L163.485 89.8787L162.515 90.1213ZM163.833 94.4713L187.833 102.971L188.167 102.029L164.167 93.5287L163.833 94.4713ZM188.474 102.658L198.974 71.1581L198.026 70.8419L187.526 102.342L188.474 102.658ZM198.712 70.5472L175.212 59.5472L174.788 60.4528L198.288 71.4528L198.712 70.5472Z" fill="#ED3B45"/>
<path d="M144 89.5L153 64H172L163 90L144 89.5Z" fill="#FFD8DA"/>
<path d="M153 64V63.5H152.646L152.529 63.8336L153 64ZM144 89.5L143.529 89.3336L143.987 89.9998L144 89.5ZM163 90L162.987 90.4998L163.353 90.5095L163.472 90.1636L163 90ZM172 64L172.472 64.1636L172.702 63.5H172V64ZM152.529 63.8336L143.529 89.3336L144.471 89.6664L153.471 64.1664L152.529 63.8336ZM143.987 89.9998L162.987 90.4998L163.013 89.5002L144.013 89.0002L143.987 89.9998ZM163.472 90.1636L172.472 64.1636L171.528 63.8364L162.528 89.8364L163.472 90.1636ZM172 63.5H153V64.5H172V63.5Z" fill="#ED3B45"/>
<path d="M153 64L155.5 60H175L172 64H153Z" fill="#FFD8DA" stroke="#ED3B45" stroke-linejoin="round"/>
<path d="M150 80L152 75H164L162 80H150Z" fill="white"/>
<path d="M152 75V74.5C151.796 74.5 151.612 74.6245 151.536 74.8143L152 75ZM150 80L149.536 79.8143C149.474 79.9683 149.493 80.1429 149.586 80.2803C149.679 80.4177 149.834 80.5 150 80.5V80ZM162 80V80.5C162.204 80.5 162.388 80.3755 162.464 80.1857L162 80ZM164 75L164.464 75.1857C164.526 75.0316 164.507 74.8571 164.414 74.7197C164.321 74.5823 164.166 74.5 164 74.5V75ZM151.536 74.8143L149.536 79.8143L150.464 80.1857L152.464 75.1857L151.536 74.8143ZM150 80.5H162V79.5H150V80.5ZM162.464 80.1857L164.464 75.1857L163.536 74.8143L161.536 79.8143L162.464 80.1857ZM164 74.5H152V75.5H164V74.5Z" fill="#ED3B45"/>
<path d="M148 86L149 83H161L160 86H148Z" fill="white"/>
<path d="M149 83V82.5C148.785 82.5 148.594 82.6377 148.526 82.8419L149 83ZM148 86L147.526 85.8419C147.475 85.9944 147.5 86.162 147.594 86.2924C147.688 86.4227 147.839 86.5 148 86.5V86ZM160 86V86.5C160.215 86.5 160.406 86.3623 160.474 86.1581L160 86ZM161 83L161.474 83.1581C161.525 83.0056 161.5 82.838 161.406 82.7076C161.312 82.5773 161.161 82.5 161 82.5V83ZM148.526 82.8419L147.526 85.8419L148.474 86.1581L149.474 83.1581L148.526 82.8419ZM148 86.5H160V85.5H148V86.5ZM160.474 86.1581L161.474 83.1581L160.526 82.8419L159.526 85.8419L160.474 86.1581ZM161 82.5H149V83.5H161V82.5Z" fill="#ED3B45"/>
<path d="M158 83L157 86" stroke="#ED3B45"/>
<path d="M155 83L154 86" stroke="#ED3B45"/>
<path d="M152 83L151 86" stroke="#ED3B45"/>
<path d="M140.5 79L138 75L135 77L132 75L129 77" stroke="#ED3B45" stroke-linecap="round"/>
<path d="M145.5 69H141V65L137.5 67L134.5 64L130 66" stroke="#ED3B45" stroke-linecap="round"/>
<path d="M150.974 59.7051L150.038 57L147 57.5L147.5 54L142 53.5001L143 50.5004" stroke="#ED3B45" stroke-linecap="round"/>
<path d="M163.079 57L160.5 54.5L163.079 52L160.5 50.4998L162 47.4998L159 47.0004" stroke="#ED3B45" stroke-linecap="round"/>
<path d="M140 87.5L136.5 86L135 89.5L131 88.5L130 90.5" stroke="#ED3B45" stroke-linecap="round"/>
<path d="M144.697 97.7868L141.28 96.9289L142.5 100.285L139.093 100.461L139.342 104.647" stroke="#ED3B45" stroke-linecap="round"/>
<path d="M158 98.4987L156.5 122C156.5 122 159.5 123.56 163 124C167 124.503 170.5 123.5 170.5 123.5L172 102C172 102 170.5 99.7904 166.5 98.4992C161 96.7237 158 98.4987 158 98.4987Z" fill="white" stroke="#189EE9"/>
<path d="M180.627 179.277C181.764 180.201 182.729 180.944 183.435 181.474C179.678 181.351 175.054 180.754 171.203 179.043C167.282 177.3 163.004 174.236 159.883 169.17C156.764 164.107 154.778 157.008 155.499 147.153C156.217 137.339 160.035 131.047 164.208 126.96C168.193 123.056 172.517 121.145 174.866 120.106C174.975 120.058 175.08 120.011 175.181 119.967C178.814 118.76 182.79 118.547 186.039 118.509C185.39 118.878 184.583 119.35 183.658 119.916C181.188 121.426 177.877 123.606 174.515 126.281C171.155 128.954 167.732 132.132 165.048 135.642C162.367 139.148 160.399 143.017 160.002 147.068C159.582 151.365 160.955 155.728 163.202 159.827C165.451 163.929 168.596 167.804 171.777 171.143C174.96 174.483 178.192 177.298 180.627 179.277Z" fill="#CEEAFA" stroke="#189EE9"/>
<path d="M213.603 152.649C211.995 169.958 198.933 182.885 184.046 181.502C169.14 180.118 157.816 164.904 159.421 147.617C161.028 130.313 174.563 117.115 189.454 118.498C204.345 119.881 215.21 135.345 213.603 152.649Z" fill="#FCFCFC" stroke="#189EE9"/>
<path d="M172 129.5L169 134.5L171.5 138.5L174 139L171.5 135L174 130.5H178L176 129.5H172Z" fill="#CEEAFA"/>
<path d="M169 134.5L168.571 134.243L168.414 134.505L168.576 134.765L169 134.5ZM172 129.5V129H171.717L171.571 129.243L172 129.5ZM176 129.5L176.224 129.053L176.118 129H176V129.5ZM171.5 135L171.063 134.757L170.92 135.015L171.076 135.265L171.5 135ZM174 139L173.902 139.49L174.424 138.735L174 139ZM171.5 138.5L171.076 138.765L171.19 138.948L171.402 138.99L171.5 138.5ZM178 130.5V131L178.224 130.053L178 130.5ZM174 130.5V130H173.706L173.563 130.257L174 130.5ZM169.429 134.757L172.429 129.757L171.571 129.243L168.571 134.243L169.429 134.757ZM172 130H176V129H172V130ZM171.076 135.265L173.576 139.265L174.424 138.735L171.924 134.735L171.076 135.265ZM174.098 138.51L171.598 138.01L171.402 138.99L173.902 139.49L174.098 138.51ZM171.924 138.235L169.424 134.235L168.576 134.765L171.076 138.765L171.924 138.235ZM175.776 129.947L177.776 130.947L178.224 130.053L176.224 129.053L175.776 129.947ZM178 130H174V131H178V130ZM173.563 130.257L171.063 134.757L171.937 135.243L174.437 130.743L173.563 130.257Z" fill="#189EE9"/>
<path d="M174 130.5L171.5 135L174 139H178L180 134.5L178 130.5H174Z" fill="white" stroke="#189EE9"/>
<path d="M202.118 163L204 163.952L200.706 173H198.824L196 168.238L198.824 163.476L202.118 163Z" fill="#CEEAFA" stroke="#189EE9"/>
<path d="M200.5 164.474L198 168.737L200.5 173L205 172.526L207 167.789L204 164L200.5 164.474Z" fill="white" stroke="#189EE9"/>
<path d="M176.034 150.105C175.534 159.605 180.534 165.605 189.034 167.605L272.534 189.605L298.034 158.605L191.034 137.105C182.034 136.106 176.442 142.364 176.034 150.105Z" fill="url(#paint2_linear)"/>
<path d="M298.5 158.5L191.5 137C182.5 136 176.907 142.259 176.5 150C176 159.5 181 165.499 189.5 167.499L273 189.499" stroke="url(#paint3_linear)"/>
<path d="M175.118 162L177 162.952L173.706 172H171.824L169 167.238L171.824 162.476L175.118 162Z" fill="#CEEAFA" stroke="#189EE9"/>
<path d="M173.5 163.474L171 167.737L173.5 172L178 171.526L180 166.789L177 163L173.5 163.474Z" fill="white" stroke="#189EE9"/>
<path d="M202.5 128L199 132L200.5 136.5L206.5 137.5L208 129L202.5 128Z" fill="#CEEAFA" stroke="#189EE9"/>
<path d="M204.5 128.5L201.5 132L203 137L206.5 137.5L209.5 134L208 129L204.5 128.5Z" fill="white" stroke="#189EE9"/>
<path d="M226.5 108.5V103.5L230.5 104.5V109L228 109.5L226.5 108.5Z" fill="#CEEAFA" stroke="#189EE9"/>
<path d="M238 146.328V109.265L235 110.5L230.5 109L227.5 109.5V144.5C227.667 145.833 228.436 147.491 232 148C235.5 148.5 237.667 146.9 238 146.328Z" fill="white" stroke="#189EE9"/>
<path d="M239.5 104.5V108.5L235 110.5L230.5 109V104.5" stroke="#189EE9"/>
<path d="M226.656 59.4763C228.532 59.0094 230.173 58.7658 231.762 58.6387C229.958 59.2024 227.855 60.0347 225.749 61.255C220.128 64.5126 214.5 70.5363 214.5 81.5002C214.5 92.7971 219.862 98.8264 225.246 102.006C226.87 102.965 228.492 103.663 229.964 104.17C228.988 104.025 227.786 103.816 226.125 103.514C218.818 101.066 211.5 94.2435 211.5 81.5002C211.5 71.6118 217.733 63.1496 226.656 59.4763Z" fill="#CEEAFA" stroke="#189EE9"/>
<path d="M258.5 81.5C258.5 94.2233 248.63 104.5 236.5 104.5C224.37 104.5 214.5 94.2233 214.5 81.5C214.5 68.7767 224.37 58.5 236.5 58.5C248.63 58.5 258.5 68.7767 258.5 81.5Z" fill="white" stroke="#189EE9"/>
<ellipse cx="237" cy="81.5" rx="20" ry="21.5" fill="white"/>
<path d="M256.5 81.5C256.5 93.1327 247.736 102.5 237 102.5C226.264 102.5 217.5 93.1327 217.5 81.5C217.5 69.8674 226.264 60.5 237 60.5C247.736 60.5 256.5 69.8674 256.5 81.5Z" stroke="#189EE9" stroke-opacity="0.2"/>
<circle cx="238" cy="82" r="2" fill="#189EE9"/>
<path d="M240.5 79L224 93L242 80.5L243.377 80.2704C244.117 80.1472 244.463 79.2839 244.013 78.684L242.971 77.2944C242.525 76.6997 241.609 76.7823 241.276 77.4472L240.5 79Z" fill="#189EE9"/>
<path fill-rule="evenodd" clip-rule="evenodd" d="M237.781 62.9946L237.769 66.3487L238.769 66.3525L238.781 62.9984L237.781 62.9946ZM230.131 68.113L228.361 65.2637L229.211 64.7361L230.98 67.5853L230.131 68.113ZM221.276 73.4471L224.276 74.9471L224.724 74.0527L221.724 72.5527L221.276 73.4471ZM223 83.9999H219.5V82.9999H223V83.9999ZM226.277 90.9159L223.277 92.9159L222.723 92.0839L225.723 90.0839L226.277 90.9159ZM245.626 69.5649L247.855 67.0579L248.602 67.7222L246.374 70.2292L245.626 69.5649ZM252.898 75.6257L249.736 76.744L250.069 77.6868L253.232 76.5685L252.898 75.6257ZM250.17 85.8782L253.324 87.02L252.984 87.9603L249.83 86.8184L250.17 85.8782ZM248.03 95.8934L245.895 93.3073L245.123 93.9441L247.259 96.5302L248.03 95.8934Z" fill="#189EE9"/>
<path d="M235.5 132C235.5 129.2 237.167 127.333 238 126.5L250 128C251.5 128.5 253.5 129.8 253.5 133C253.5 136.2 251 137.5 250 137.5H238C237 137 235.5 134.8 235.5 132Z" fill="white" stroke="#189EE9"/>
<path d="M260.5 128C259 128 255.5 130 253.5 131V135C255 136.5 257.5 138.833 259 139C263.5 139.5 265.5 135.5 265.5 134C265.5 131.5 262 128 260.5 128Z" fill="#CEEAFA" stroke="#189EE9"/>
<path d="M258.5 132L253.5 131.5C253.667 132.667 253.8 135 253 135L258 135.5C258.5 135.5 259.5 135 259.5 134C259.5 132.5 259 132 258.5 132Z" fill="white" stroke="#189EE9"/>
<path d="M260.5 128C264.5 129 267 131.5 267 134C267 136 264.5 138.5 260 139" stroke="#189EE9"/>
<defs>
<linearGradient id="paint0_linear" x1="120" y1="134" x2="57.5" y2="118.5" gradientUnits="userSpaceOnUse">
<stop stop-color="#CEEAFA"/>
<stop offset="0.882202" stop-color="#CEEAFA" stop-opacity="0"/>
</linearGradient>
<linearGradient id="paint1_linear" x1="121" y1="135.5" x2="63.5" y2="119.5" gradientUnits="userSpaceOnUse">
<stop stop-color="#189EE9"/>
<stop offset="1" stop-color="#189EE9" stop-opacity="0"/>
</linearGradient>
<linearGradient id="paint2_linear" x1="216" y1="155" x2="275.5" y2="170.5" gradientUnits="userSpaceOnUse">
<stop stop-color="#CEEAFA"/>
<stop offset="1" stop-color="#CEEAFA" stop-opacity="0"/>
</linearGradient>
<linearGradient id="paint3_linear" x1="176" y1="151" x2="298" y2="179.5" gradientUnits="userSpaceOnUse">
<stop stop-color="#189EE9"/>
<stop offset="1" stop-color="#189EE9" stop-opacity="0"/>
</linearGradient>
</defs>
</svg>
