<svg width="356" height="229" viewBox="0 0 356 229" fill="none" xmlns="http://www.w3.org/2000/svg">
<path d="M325 93L31 96.4251V145L325 139.084V93Z" stroke="url(#paint0_linear)"/>
<path d="M252 117.965C250.508 128.408 250.009 130.904 248.021 139.353C238.188 165.199 213.22 186.5 184 186.5C146.184 186.5 116.51 155.851 116.5 118.019C117.001 111.503 117.774 102.108 119.481 96.1374C127.666 67.5004 152.688 49.5 184 49.5C221.815 49.5 251.981 80.1446 252 117.965Z" fill="#D1ECFB" stroke="#189EE9"/>
<circle cx="185" cy="110" r="67.5" fill="white" stroke="#189EE9"/>
<path d="M252.5 113C252.5 75.4446 222.555 48 185 48C147.445 48 117 78.4446 117 116" stroke="#189EE9" stroke-opacity="0.2"/>
<path fill-rule="evenodd" clip-rule="evenodd" d="M118.501 136.976L119 126.476L119.999 126.524L119.499 137.024L118.501 136.976ZM120.001 140.974L120.501 131.474L121.499 131.526L120.999 141.026L120.001 140.974ZM122.001 135.475L121.501 145.475L122.499 145.525L122.999 135.525L122.001 135.475Z" fill="#189EE9"/>
<path fill-rule="evenodd" clip-rule="evenodd" d="M154.013 170.386L152.013 178.885L152.987 179.114L154.987 170.615L154.013 170.386ZM157.012 171.392L155.012 180.392L155.988 180.609L157.988 171.609L157.012 171.392ZM158.512 181.892L160.512 172.892L161.488 173.108L159.488 182.108L158.512 181.892ZM164.512 173.892L162.512 182.892L163.488 183.108L165.488 174.108L164.512 173.892Z" fill="#189EE9"/>
<path fill-rule="evenodd" clip-rule="evenodd" d="M229.499 161.036L228.999 168.036L228.001 167.965L228.501 160.965L229.499 161.036ZM227.499 163.036L226.999 170.036L226.001 169.965L226.501 162.965L227.499 163.036ZM224.999 172.034L225.499 164.533L224.501 164.467L224.001 171.967L224.999 172.034ZM223.499 166.033L222.999 173.534L222.001 173.467L222.501 165.967L223.499 166.033Z" fill="#189EE9"/>
<rect x="152.93" y="70.5752" width="61" height="8" transform="rotate(-1.07927 152.93 70.5752)" fill="#189EE9" fill-opacity="0.2"/>
<rect x="128" y="118.091" width="42.9662" height="2.19953" transform="rotate(-1.07927 128 118.091)" fill="#189EE9" fill-opacity="0.2"/>
<rect x="164" y="148.809" width="42.9662" height="2.19953" transform="rotate(-1.07927 164 148.809)" fill="#189EE9" fill-opacity="0.2"/>
<rect x="168.936" y="158.717" width="33.092" height="2.19953" transform="rotate(-1.07927 168.936 158.717)" fill="#189EE9" fill-opacity="0.2"/>
<rect x="128" y="128.096" width="35.2036" height="2.19953" transform="rotate(-1.07927 128 128.096)" fill="#189EE9" fill-opacity="0.2"/>
<rect x="128" y="122.185" width="26.461" height="2.19953" transform="rotate(-1.07927 128 122.185)" fill="#189EE9" fill-opacity="0.2"/>
<rect x="172" y="152.902" width="26.461" height="2.19953" transform="rotate(-1.07927 172 152.902)" fill="#189EE9" fill-opacity="0.2"/>
<rect x="165.917" y="163.018" width="38.6292" height="2.19953" transform="rotate(-1.07927 165.917 163.018)" fill="#189EE9" fill-opacity="0.2"/>
<rect x="128" y="132.189" width="30.5062" height="2.19953" transform="rotate(-1.07927 128 132.189)" fill="#189EE9" fill-opacity="0.2"/>
<rect x="127.907" y="86.2373" width="113.647" height="21.8892" rx="2" transform="rotate(-1.07927 127.907 86.2373)" fill="#189EE9" fill-opacity="0.2"/>
<mask id="path-18-inside-1" fill="white">
<path fill-rule="evenodd" clip-rule="evenodd" d="M132.877 89.972C132.867 89.4198 133.306 88.9637 133.858 88.9533L143.856 88.7648C144.409 88.7544 144.865 89.1936 144.875 89.7458L145.139 103.743C145.149 104.296 144.71 104.752 144.158 104.762L134.16 104.95C133.608 104.961 133.152 104.522 133.141 103.97L132.877 89.972ZM145.875 89.727C145.865 89.1748 146.304 88.7187 146.856 88.7083L156.854 88.5198C157.406 88.5094 157.862 88.9486 157.873 89.5008L158.137 103.498C158.147 104.05 157.708 104.507 157.156 104.517L147.157 104.705C146.605 104.716 146.149 104.277 146.139 103.724L145.875 89.727ZM159.854 88.4633C159.301 88.4737 158.862 88.9297 158.873 89.4819L159.137 103.479C159.147 104.032 159.603 104.471 160.155 104.46L170.153 104.272C170.706 104.262 171.145 103.805 171.134 103.253L170.87 89.2557C170.86 88.7036 170.404 88.2644 169.852 88.2748L159.854 88.4633ZM171.87 89.2369C171.86 88.6847 172.299 88.2286 172.851 88.2182L182.85 88.0297C183.402 88.0193 183.858 88.4585 183.868 89.0107L184.132 103.008C184.142 103.56 183.703 104.016 183.151 104.027L173.153 104.215C172.601 104.226 172.145 103.787 172.134 103.234L171.87 89.2369ZM185.849 87.9733C185.297 87.9837 184.858 88.4398 184.868 88.992L185.132 102.99C185.142 103.542 185.598 103.981 186.151 103.97L196.149 103.782C196.701 103.772 197.14 103.316 197.13 102.763L196.866 88.7658C196.855 88.2136 196.399 87.7744 195.847 87.7849L185.849 87.9733Z"/>
</mask>
<path fill-rule="evenodd" clip-rule="evenodd" d="M132.877 89.972C132.867 89.4198 133.306 88.9637 133.858 88.9533L143.856 88.7648C144.409 88.7544 144.865 89.1936 144.875 89.7458L145.139 103.743C145.149 104.296 144.71 104.752 144.158 104.762L134.16 104.95C133.608 104.961 133.152 104.522 133.141 103.97L132.877 89.972ZM145.875 89.727C145.865 89.1748 146.304 88.7187 146.856 88.7083L156.854 88.5198C157.406 88.5094 157.862 88.9486 157.873 89.5008L158.137 103.498C158.147 104.05 157.708 104.507 157.156 104.517L147.157 104.705C146.605 104.716 146.149 104.277 146.139 103.724L145.875 89.727ZM159.854 88.4633C159.301 88.4737 158.862 88.9297 158.873 89.4819L159.137 103.479C159.147 104.032 159.603 104.471 160.155 104.46L170.153 104.272C170.706 104.262 171.145 103.805 171.134 103.253L170.87 89.2557C170.86 88.7036 170.404 88.2644 169.852 88.2748L159.854 88.4633ZM171.87 89.2369C171.86 88.6847 172.299 88.2286 172.851 88.2182L182.85 88.0297C183.402 88.0193 183.858 88.4585 183.868 89.0107L184.132 103.008C184.142 103.56 183.703 104.016 183.151 104.027L173.153 104.215C172.601 104.226 172.145 103.787 172.134 103.234L171.87 89.2369ZM185.849 87.9733C185.297 87.9837 184.858 88.4398 184.868 88.992L185.132 102.99C185.142 103.542 185.598 103.981 186.151 103.97L196.149 103.782C196.701 103.772 197.14 103.316 197.13 102.763L196.866 88.7658C196.855 88.2136 196.399 87.7744 195.847 87.7849L185.849 87.9733Z" fill="white"/>
<path d="M132.877 89.972L133.877 89.9531L132.877 89.972ZM144.158 104.762L144.177 105.762L144.158 104.762ZM134.16 104.95L134.141 103.951L134.16 104.95ZM133.141 103.97L132.141 103.988L133.141 103.97ZM146.856 88.7083L146.837 87.7085L146.856 88.7083ZM156.854 88.5198L156.873 89.5196L156.854 88.5198ZM157.156 104.517L157.137 103.517L157.156 104.517ZM147.157 104.705L147.176 105.705L147.157 104.705ZM158.873 89.4819L157.873 89.5008L158.873 89.4819ZM159.854 88.4633L159.872 89.4631L159.854 88.4633ZM159.137 103.479L160.136 103.461L159.137 103.479ZM169.852 88.2748L169.833 87.275L169.852 88.2748ZM183.151 104.027L183.132 103.027L183.151 104.027ZM173.153 104.215L173.172 105.215L173.153 104.215ZM184.868 88.992L183.868 89.0109L184.868 88.992ZM185.132 102.99L186.132 102.971L185.132 102.99ZM186.151 103.97L186.132 102.971L186.151 103.97ZM196.149 103.782L196.168 104.782L196.149 103.782ZM133.839 87.9535C132.735 87.9743 131.857 88.8865 131.877 89.9908L133.877 89.9531L133.839 87.9535ZM143.838 87.765L133.839 87.9535L133.877 89.9531L143.875 89.7647L143.838 87.765ZM145.875 89.727C145.854 88.6226 144.942 87.7442 143.838 87.765L143.875 89.7647L145.875 89.727ZM146.139 103.724L145.875 89.727L143.875 89.7647L144.139 103.762L146.139 103.724ZM144.177 105.762C145.281 105.741 146.16 104.829 146.139 103.724L144.139 103.762L144.177 105.762ZM134.179 105.95L144.177 105.762L144.139 103.762L134.141 103.951L134.179 105.95ZM132.141 103.988C132.162 105.093 133.074 105.971 134.179 105.95L134.141 103.951L134.141 103.951L132.141 103.988ZM131.877 89.9908L132.141 103.988L134.141 103.951L133.877 89.9531L131.877 89.9908ZM146.837 87.7085C145.733 87.7293 144.854 88.6414 144.875 89.7458L146.875 89.7081L146.837 87.7085ZM156.835 87.52L146.837 87.7085L146.875 89.7081L156.873 89.5196L156.835 87.52ZM158.873 89.4819C158.852 88.3776 157.94 87.4992 156.835 87.52L156.873 89.5196L158.873 89.4819ZM159.137 103.479L158.873 89.4819L156.873 89.5196L157.137 103.517L159.137 103.479ZM157.175 105.517C158.279 105.496 159.157 104.584 159.137 103.479L157.137 103.517L157.175 105.517ZM147.176 105.705L157.175 105.517L157.137 103.517L147.139 103.706L147.176 105.705ZM145.139 103.743C145.16 104.848 146.072 105.726 147.176 105.705L147.139 103.706L145.139 103.743ZM144.875 89.7458L145.139 103.743L147.139 103.706L146.875 89.7081L144.875 89.7458ZM159.872 89.4631L159.835 87.4634C158.73 87.4843 157.852 88.3964 157.873 89.5008L159.872 89.4631ZM160.136 103.461L159.872 89.4631L157.873 89.5008L158.137 103.498L160.136 103.461ZM160.136 103.461L158.137 103.498C158.158 104.603 159.07 105.481 160.174 105.46L160.136 103.461ZM170.135 103.272L160.136 103.461L160.174 105.46L170.172 105.272L170.135 103.272ZM170.135 103.272L170.172 105.272C171.277 105.251 172.155 104.339 172.134 103.234L170.135 103.272ZM169.871 89.2746L170.135 103.272L172.134 103.234L171.87 89.2369L169.871 89.2746ZM169.871 89.2746L171.87 89.2369C171.85 88.1325 170.937 87.2541 169.833 87.275L169.871 89.2746ZM159.872 89.4631L169.871 89.2746L169.833 87.275L159.835 87.4634L159.872 89.4631ZM172.832 87.2184C171.728 87.2392 170.85 88.1514 170.87 89.2557L172.87 89.2181L172.832 87.2184ZM182.831 87.0299L172.832 87.2184L172.87 89.2181L182.868 89.0296L182.831 87.0299ZM184.868 88.9919C184.847 87.8875 183.935 87.0091 182.831 87.0299L182.868 89.0296L184.868 88.9919ZM185.132 102.989L184.868 88.9919L182.868 89.0296L183.132 103.027L185.132 102.989ZM183.17 105.027C184.274 105.006 185.153 104.094 185.132 102.989L183.132 103.027L183.17 105.027ZM173.172 105.215L183.17 105.027L183.132 103.027L173.134 103.216L173.172 105.215ZM171.134 103.253C171.155 104.358 172.067 105.236 173.172 105.215L173.134 103.216L171.134 103.253ZM170.87 89.2557L171.134 103.253L173.134 103.216L172.87 89.2181L170.87 89.2557ZM185.868 88.9732L185.83 86.9735C184.726 86.9943 183.847 87.9065 183.868 89.0109L185.868 88.9732ZM186.132 102.971L185.868 88.9732L183.868 89.0109L184.132 103.008L186.132 102.971ZM186.132 102.971L184.132 103.008C184.153 104.113 185.065 104.991 186.169 104.97L186.132 102.971ZM196.13 102.782L186.132 102.971L186.169 104.97L196.168 104.782L196.13 102.782ZM196.13 102.782L196.168 104.782C197.272 104.761 198.15 103.849 198.13 102.744L196.13 102.782ZM195.866 88.7847L196.13 102.782L198.13 102.744L197.866 88.747L195.866 88.7847ZM195.866 88.7847L197.866 88.747C197.845 87.6426 196.933 86.7642 195.828 86.785L195.866 88.7847ZM185.868 88.9732L195.866 88.7847L195.828 86.785L185.83 86.9735L185.868 88.9732Z" fill="#189EE9" mask="url(#path-18-inside-1)"/>
<rect x="224.352" y="87.7473" width="11" height="15" rx="0.5" transform="rotate(-1.08 224.352 87.7473)" fill="#FFD8DA" stroke="#ED3B45"/>
<rect x="198.356" y="88.2376" width="11" height="15" rx="0.5" transform="rotate(-1.08 198.356 88.2376)" fill="#FFD8DA" stroke="#ED3B45"/>
<rect x="211.354" y="87.9924" width="11" height="15" rx="0.5" transform="rotate(-1.08 211.354 87.9924)" fill="#FFD8DA" stroke="#ED3B45"/>
<circle cx="185.574" cy="124.443" r="7.06537" transform="rotate(-1.08 185.574 124.443)" fill="white" stroke="#189EE9"/>
<circle cx="216.445" cy="126.445" r="12.2173" transform="rotate(-1.08 216.445 126.445)" fill="white"/>
<circle cx="216.445" cy="126.445" r="11.7173" transform="rotate(-1.08 216.445 126.445)" stroke="#189EE9" stroke-opacity="0.2"/>
<path fill-rule="evenodd" clip-rule="evenodd" d="M219.212 125.352C219.339 125.674 219.411 126.023 219.418 126.389C219.449 128.031 218.143 129.387 216.501 129.418C214.86 129.449 213.504 128.143 213.473 126.501C213.442 124.859 214.748 123.503 216.389 123.472C217.026 123.46 217.619 123.649 218.109 123.98L223.634 120.457L219.212 125.352Z" fill="#D1ECFB"/>
<path fill-rule="evenodd" clip-rule="evenodd" d="M184.422 119.083L183.463 119.367L184.679 123.484L180.908 121.432L180.43 122.31L184.201 124.362L180.083 125.578L180.367 126.537L184.484 125.321L182.432 129.092L183.31 129.57L185.362 125.799L186.578 129.916L187.537 129.633L186.321 125.516L190.092 127.568L190.57 126.689L186.799 124.638L190.916 123.422L190.633 122.463L186.516 123.679L188.568 119.908L187.69 119.43L185.638 123.201L184.422 119.083Z" fill="#189EE9"/>
<path d="M139.594 102.111C141.623 102.073 142.928 100.732 142.866 97.4428L142.851 96.631C142.789 93.3135 141.463 92.0503 139.405 92.0891C137.375 92.1274 136.07 93.4682 136.132 96.7576L136.148 97.5695C136.21 100.887 137.536 102.15 139.594 102.111ZM139.57 100.852C138.366 100.874 137.568 100.105 137.519 97.5436L137.504 96.7318C137.455 94.1422 138.197 93.3721 139.429 93.3489C140.632 93.3262 141.431 94.0953 141.479 96.6568L141.495 97.4687C141.544 100.058 140.802 100.828 139.57 100.852Z" fill="#189EE9" fill-opacity="0.2"/>
<path d="M151.744 102.111C153.774 102.073 155.078 100.732 155.016 97.4428L155.001 96.631C154.939 93.3135 153.613 92.0503 151.555 92.0891C149.525 92.1274 148.22 93.4682 148.282 96.7576L148.298 97.5695C148.36 100.887 149.686 102.15 151.744 102.111ZM151.72 100.852C150.516 100.874 149.718 100.105 149.669 97.5436L149.654 96.7318C149.605 94.1422 150.347 93.3721 151.579 93.3489C152.782 93.3262 153.581 94.0953 153.629 96.6568L153.645 97.4687C153.694 100.058 152.952 100.828 151.72 100.852Z" fill="#189EE9" fill-opacity="0.2"/>
<path d="M164.744 101.111C166.774 101.073 168.078 99.7322 168.016 96.4428L168.001 95.631C167.939 92.3135 166.613 91.0503 164.555 91.0891C162.525 91.1274 161.22 92.4682 161.282 95.7576L161.298 96.5695C161.36 99.8869 162.686 101.15 164.744 101.111ZM164.72 99.8515C163.516 99.8742 162.718 99.1052 162.669 96.5436L162.654 95.7318C162.605 93.1422 163.347 92.3721 164.579 92.3489C165.782 92.3262 166.581 93.0953 166.629 95.6568L166.645 96.4687C166.694 99.0582 165.952 99.8283 164.72 99.8515Z" fill="#189EE9" fill-opacity="0.2"/>
<path d="M174.025 98.871L178.757 98.7818L178.798 100.979L180.114 100.955L180.072 98.757L181.304 98.7338L181.281 97.53L180.05 97.5532L179.929 91.1564L178.221 91.1886L174.003 97.6672L174.025 98.871ZM175.444 97.64L178.641 92.6509L178.734 97.578L175.444 97.64Z" fill="#189EE9"/>
<path d="M190.853 101.109C192.673 101.075 194.049 99.7888 194.012 97.8431L194.007 97.5912C193.969 95.5755 192.757 94.4082 190.798 94.4451C189.93 94.4615 189.195 94.8254 188.702 95.4508C188.756 93.0974 189.554 92.3682 190.758 92.3455C191.584 92.3299 192.041 92.7834 192.261 93.3393L193.647 93.3132C193.3 92.0035 192.302 91.0562 190.734 91.0857C188.691 91.1243 187.331 92.5221 187.4 96.1755L187.415 96.9873C187.471 99.9688 188.838 101.147 190.853 101.109ZM190.737 95.7065C191.871 95.6851 192.613 96.3993 192.636 97.617L192.64 97.869C192.663 99.0728 191.963 99.8281 190.829 99.8495C189.682 99.8711 188.829 99.1871 188.804 97.8713L188.799 97.6194C188.777 96.4716 189.506 95.7297 190.737 95.7065Z" fill="#189EE9"/>
<path d="M201 91.8571L206.571 91L205.714 94H201.857L202.286 96.1429H204L207 96.5714L205.714 100L201.857 97.4286" stroke="#ED3B45"/>
<path d="M215.714 95.0909L214 92.6364L215.714 91L220 92.6364L214.429 97.9545V100H217.429V97.1364H219.571L220 99.5909" stroke="#ED3B45"/>
<path d="M233.476 90.939L233.677 91.3968L233.466 90.4391L233.476 90.939ZM227.524 93.5517L227.323 93.0938L227.474 94.0492L227.524 93.5517ZM226.986 91.5614L233.485 91.4389L233.466 90.4391L226.968 90.5616L226.986 91.5614ZM233.275 90.4812L227.323 93.0938L227.725 94.0095L233.677 91.3968L233.275 90.4812ZM227.474 94.0492L231.95 94.4975L232.05 93.5025L227.574 93.0541L227.474 94.0492Z" fill="#ED3B45"/>
<path d="M227 96L233.476 96.439L227.524 99.0516L233.523 98.9385" stroke="#ED3B45"/>
<path d="M112.5 95.5C112.5 95.5 107.883 104.5 108 120C108.117 135.5 112.5 143.5 112.5 143.5" stroke="#189EE9" stroke-opacity="0.2"/>
<path d="M255 95C255 95 259.102 103.438 258.998 117.969C258.894 132.5 255 140 255 140" stroke="#189EE9" stroke-opacity="0.2"/>
<path d="M109.502 95.5C109.502 95.5 104.885 104.5 105.002 120C105.119 135.5 109.502 143.5 109.502 143.5" stroke="#189EE9" stroke-opacity="0.2"/>
<path d="M258 95C258 95 262.102 103.438 261.998 117.969C261.894 132.5 258 140 258 140" stroke="#189EE9" stroke-opacity="0.2"/>
<path d="M106.502 95.5C106.502 95.5 101.885 104.5 102.002 120C102.119 135.5 106.502 143.5 106.502 143.5" stroke="#189EE9" stroke-opacity="0.2"/>
<path d="M261 95C261 95 265.102 103.438 264.998 117.969C264.894 132.5 261 140 261 140" stroke="#189EE9" stroke-opacity="0.2"/>
<defs>
<linearGradient id="paint0_linear" x1="31.4992" y1="119.156" x2="324.52" y2="103.978" gradientUnits="userSpaceOnUse">
<stop stop-color="#189EE9" stop-opacity="0"/>
<stop offset="0.532809" stop-color="#189EE9"/>
<stop offset="1" stop-color="#189EE9" stop-opacity="0"/>
</linearGradient>
</defs>
</svg>
