<svg width="356" height="229" viewBox="0 0 356 229" fill="none" xmlns="http://www.w3.org/2000/svg">
<path d="M106.571 81H249.429L303 179H53L106.571 81Z" fill="#CEEAFA"/>
<path d="M45.8442 172.5L102.296 69.5H253.704L310.156 172.5H45.8442Z" fill="white" stroke="#189EE9"/>
<path d="M152 172H159L163.5 134H159L152 172Z" fill="#CEEAFA"/>
<path d="M117.385 109L86 172H91L123 106H98V109H117.385Z" fill="#CEEAFA"/>
<path d="M84 172L114.885 110H98" stroke="#CEEAFA"/>
<path d="M91 91H189L191 93H90L91 91Z" fill="#CEEAFA"/>
<path d="M288.5 134H163L162 139H291.259L288.5 134Z" fill="#CEEAFA"/>
<path d="M188 91H191L197.519 139H192.741L188 91Z" fill="#CEEAFA"/>
<path d="M206 85.5V68.5L201 58.5V75.5L206 85.5Z" fill="white" stroke="#189EE9"/>
<path d="M250 82.4996H234V68.4996L233 65.4996V56.5H250V82.4996Z" fill="#CEEAFA" stroke="#189EE9"/>
<rect x="-0.5" y="0.5" width="28" height="17" transform="matrix(-1 0 0 1 234 68)" fill="#CEEAFA" stroke="#189EE9"/>
<path d="M244.5 49.5L250 56.5H233L229 49.5H244.5Z" fill="white"/>
<path d="M250 56.5L250.393 56.1911L250 57V56.5ZM244.5 49.5V49H244.743L244.893 49.1911L244.5 49.5ZM229 49.5L228.566 49.7481C228.477 49.5933 228.478 49.4032 228.568 49.249C228.657 49.0949 228.822 49 229 49V49.5ZM233 56.5V57H232.71L232.566 56.7481L233 56.5ZM249.607 56.8089L244.107 49.8089L244.893 49.1911L250.393 56.1911L249.607 56.8089ZM244.5 50H229V49H244.5V50ZM250 57H233V56H250V57ZM229.434 49.2519L233.434 56.2519L232.566 56.7481L228.566 49.7481L229.434 49.2519Z" fill="#189EE9"/>
<path d="M229 49.5V58.5" stroke="#189EE9"/>
<path d="M234 68L229 58H201V60.5" stroke="#189EE9"/>
<path d="M129.5 145L129.987 144.885L129.5 145ZM226.5 115.5L226.962 115.691L226.5 115.5ZM153.5 93.5L153.968 93.3244L153.5 93.5ZM178.5 80C178.5 79.7239 178.276 79.5 178 79.5C177.724 79.5 177.5 79.7239 177.5 80H178.5ZM177.5 80C177.5 80.5737 177.333 81.0732 177.022 81.5238L177.845 82.0918C178.265 81.4823 178.5 80.7862 178.5 80H177.5ZM174.136 83.5293C173.095 83.9635 171.872 84.3306 170.537 84.6606L170.777 85.6314C172.136 85.2954 173.414 84.9141 174.521 84.4522L174.136 83.5293ZM166.799 85.4683C165.548 85.7138 164.26 85.9539 163.019 86.2036L163.216 87.1839C164.458 86.9341 165.724 86.6984 166.991 86.4496L166.799 85.4683ZM159.232 87.0665C157.841 87.4407 156.564 87.8745 155.522 88.4141L155.981 89.3022C156.932 88.8102 158.13 88.3984 159.492 88.0322L159.232 87.0665ZM152.774 91.5193C152.657 92.1865 152.743 92.9053 153.032 93.6756L153.968 93.3244C153.729 92.6855 153.679 92.1494 153.759 91.6927L152.774 91.5193ZM153.032 93.6756C153.286 94.3524 153.729 94.956 154.317 95.4953L154.993 94.7585C154.493 94.3 154.155 93.8225 153.968 93.3244L153.032 93.6756ZM157.998 97.6178C159.151 98.0732 160.469 98.4793 161.919 98.8457L162.164 97.8762C160.742 97.5169 159.468 97.123 158.365 96.6877L157.998 97.6178ZM165.92 99.7062C167.201 99.9428 168.551 100.161 169.954 100.365L170.098 99.3757C168.704 99.1731 167.368 98.9567 166.101 98.7228L165.92 99.7062ZM174.006 100.901C175.322 101.06 176.671 101.211 178.045 101.356L178.15 100.362C176.78 100.217 175.436 100.067 174.126 99.9083L174.006 100.901ZM182.093 101.764C183.431 101.893 184.784 102.02 186.144 102.145L186.236 101.15C184.877 101.024 183.525 100.898 182.189 100.768L182.093 101.764ZM190.193 102.519C191.544 102.644 192.894 102.77 194.236 102.9L194.333 101.905C192.988 101.775 191.636 101.648 190.285 101.523L190.193 102.519ZM198.278 103.308C199.643 103.452 200.991 103.602 202.315 103.761L202.434 102.768C201.104 102.608 199.751 102.458 198.383 102.313L198.278 103.308ZM206.339 104.282C207.712 104.475 209.046 104.681 210.331 104.903L210.501 103.917C209.204 103.694 207.86 103.486 206.478 103.292L206.339 104.282ZM214.306 105.677C215.696 105.985 217 106.318 218.199 106.683L218.49 105.726C217.261 105.353 215.932 105.013 214.522 104.701L214.306 105.677ZM221.943 108.087C223.307 108.732 224.385 109.442 225.148 110.223L225.863 109.524C224.99 108.629 223.798 107.858 222.37 107.183L221.943 108.087ZM226.482 113.488C226.451 114.047 226.309 114.652 226.038 115.309L226.962 115.691C227.269 114.947 227.442 114.232 227.481 113.544L226.482 113.488ZM226.038 115.309C225.805 115.873 225.496 116.403 225.113 116.9L225.906 117.51C226.339 116.946 226.694 116.341 226.962 115.691L226.038 115.309ZM222.292 119.329C221.29 119.937 220.125 120.476 218.813 120.953L219.155 121.893C220.513 121.399 221.74 120.834 222.811 120.184L222.292 119.329ZM215.092 122.055C213.885 122.347 212.602 122.604 211.252 122.832L211.418 123.818C212.787 123.587 214.094 123.325 215.327 123.027L215.092 122.055ZM207.362 123.389C206.099 123.542 204.793 123.676 203.452 123.793L203.539 124.79C204.89 124.671 206.207 124.536 207.482 124.382L207.362 123.389ZM199.53 124.089C198.244 124.172 196.932 124.244 195.6 124.308L195.648 125.307C196.984 125.243 198.302 125.171 199.594 125.087L199.53 124.089ZM191.664 124.472C190.363 124.52 189.048 124.561 187.722 124.6L187.751 125.599C189.079 125.561 190.396 125.519 191.7 125.472L191.664 124.472ZM183.777 124.706C182.466 124.739 181.149 124.771 179.83 124.804L179.855 125.803C181.173 125.771 182.491 125.739 183.802 125.706L183.777 124.706ZM175.883 124.906C174.565 124.942 173.249 124.981 171.939 125.024L171.972 126.024C173.28 125.98 174.594 125.941 175.91 125.905L175.883 124.906ZM167.99 125.172C166.661 125.228 165.343 125.292 164.038 125.364L164.094 126.363C165.393 126.29 166.707 126.227 168.032 126.171L167.99 125.172ZM160.087 125.617C158.75 125.716 157.433 125.826 156.14 125.952L156.237 126.947C157.521 126.823 158.83 126.712 160.161 126.615L160.087 125.617ZM152.201 126.395C150.856 126.569 149.546 126.764 148.277 126.983L148.447 127.969C149.7 127.752 150.996 127.559 152.329 127.387L152.201 126.395ZM144.382 127.767C143.039 128.081 141.758 128.431 140.548 128.823L140.856 129.775C142.036 129.393 143.289 129.049 144.609 128.741L144.382 127.767ZM136.817 130.28C135.525 130.889 134.355 131.573 133.328 132.343L133.929 133.143C134.891 132.421 136.001 131.77 137.243 131.185L136.817 130.28ZM130.471 135.241C129.684 136.368 129.125 137.62 128.824 139.01L129.801 139.222C130.074 137.965 130.578 136.834 131.29 135.814L130.471 135.241ZM128.655 143.069C128.729 143.728 128.848 144.41 129.013 145.115L129.987 144.885C129.829 144.217 129.718 143.575 129.649 142.958L128.655 143.069ZM129.013 145.115C129.181 145.827 129.4 146.505 129.669 147.149L130.592 146.765C130.345 146.172 130.142 145.546 129.987 144.885L129.013 145.115ZM131.928 150.734C132.843 151.763 133.923 152.666 135.137 153.46L135.684 152.623C134.533 151.871 133.524 151.024 132.676 150.07L131.928 150.734ZM138.856 155.406C140.083 155.922 141.392 156.371 142.765 156.764L143.04 155.803C141.699 155.419 140.429 154.982 139.243 154.484L138.856 155.406ZM146.797 157.732C148.116 157.995 149.476 158.222 150.865 158.418L151.005 157.428C149.631 157.234 148.29 157.01 146.993 156.751L146.797 157.732ZM154.951 158.906C156.303 159.041 157.673 159.155 159.051 159.253L159.122 158.256C157.752 158.158 156.392 158.045 155.051 157.911L154.951 158.906ZM163.152 159.505C164.522 159.576 165.892 159.638 167.252 159.695L167.294 158.696C165.936 158.639 164.57 158.577 163.205 158.506L163.152 159.505ZM171.353 159.858C172.741 159.913 174.108 159.968 175.446 160.029L175.492 159.03C174.15 158.969 172.78 158.914 171.392 158.859L171.353 159.858ZM179.518 160.248C180.935 160.338 182.301 160.444 183.602 160.574L183.702 159.579C182.385 159.448 181.007 159.341 179.582 159.25L179.518 160.248ZM187.615 161.095C189.073 161.338 190.395 161.634 191.555 161.996L191.853 161.042C190.637 160.662 189.268 160.357 187.78 160.108L187.615 161.095ZM195.061 163.675C196.139 164.504 196.75 165.509 196.852 166.763L197.849 166.682C197.72 165.101 196.933 163.853 195.67 162.883L195.061 163.675ZM196.022 170.46C195.767 171.019 195.452 171.612 195.072 172.241L195.928 172.759C196.325 172.101 196.659 171.474 196.932 170.875L196.022 170.46Z" fill="#189EE9"/>
<path d="M79 95H99L90 111H69L79 95Z" fill="#CEEAFA"/>
<path d="M70 122H90L79.5 142H58.5L70 122Z" fill="#CEEAFA"/>
<path d="M98.5 95V126.5L80 161.5H76" stroke="#189EE9"/>
<path d="M69.5 110.5L79.5 95.5H98L89.5 110.5V122.5L79.5 141.5V161.5H58.5V141.5L69.5 122.5V110.5Z" stroke="#189EE9"/>
<rect x="58.5" y="141.5" width="21" height="20" fill="white" stroke="#189EE9"/>
<rect x="69.5" y="110.5" width="20" height="12" fill="white" stroke="#189EE9"/>
<mask id="path-23-inside-1" fill="white">
<path fill-rule="evenodd" clip-rule="evenodd" d="M136.395 96C133.315 90.6667 125.617 90.6667 122.538 96L106.084 124.5C103.005 129.833 106.854 136.5 113.012 136.5H126.633L129.466 145L132.3 136.5H145.921C152.079 136.5 155.928 129.833 152.849 124.5L136.395 96Z"/>
</mask>
<path fill-rule="evenodd" clip-rule="evenodd" d="M136.395 96C133.315 90.6667 125.617 90.6667 122.538 96L106.084 124.5C103.005 129.833 106.854 136.5 113.012 136.5H126.633L129.466 145L132.3 136.5H145.921C152.079 136.5 155.928 129.833 152.849 124.5L136.395 96Z" fill="white"/>
<path d="M122.538 96L121.672 95.5V95.5L122.538 96ZM136.395 96L135.529 96.5V96.5L136.395 96ZM106.084 124.5L106.95 125L106.084 124.5ZM126.633 136.5L127.582 136.184L127.354 135.5H126.633V136.5ZM129.466 145L128.518 145.316L129.466 148.162L130.415 145.316L129.466 145ZM132.3 136.5V135.5H131.579L131.351 136.184L132.3 136.5ZM152.849 124.5L153.715 124L152.849 124.5ZM123.404 96.5C126.099 91.8333 132.834 91.8333 135.529 96.5L137.261 95.5C133.797 89.5 125.136 89.5 121.672 95.5L123.404 96.5ZM106.95 125L123.404 96.5L121.672 95.5L105.218 124L106.95 125ZM113.012 135.5C107.623 135.5 104.255 129.667 106.95 125L105.218 124C101.754 130 106.084 137.5 113.012 137.5V135.5ZM126.633 135.5H113.012V137.5H126.633V135.5ZM130.415 144.684L127.582 136.184L125.684 136.816L128.518 145.316L130.415 144.684ZM131.351 136.184L128.518 144.684L130.415 145.316L133.248 136.816L131.351 136.184ZM145.921 135.5H132.3V137.5H145.921V135.5ZM151.983 125C154.677 129.667 151.31 135.5 145.921 135.5V137.5C152.849 137.5 157.179 130 153.715 124L151.983 125ZM135.529 96.5L151.983 125L153.715 124L137.261 95.5L135.529 96.5Z" fill="#ED3B45" mask="url(#path-23-inside-1)"/>
<path d="M127.526 106.913C127.494 105.866 128.333 105 129.381 105C130.451 105 131.299 105.903 131.232 106.971L130.312 121.686C130.274 122.3 129.765 122.778 129.15 122.778C128.522 122.778 128.006 122.278 127.987 121.65L127.526 106.913Z" fill="#ED3B45"/>
<circle cx="129.133" cy="126.111" r="1.11111" fill="#ED3B45"/>
<mask id="path-27-inside-2" fill="white">
<path fill-rule="evenodd" clip-rule="evenodd" d="M232.535 80C230.225 76 224.452 76 222.142 80L210.813 99.6235C208.503 103.624 211.39 108.624 216.009 108.624H225.308L227.339 114.715L229.369 108.624H238.668C243.287 108.624 246.174 103.624 243.864 99.6235L232.535 80Z"/>
</mask>
<path fill-rule="evenodd" clip-rule="evenodd" d="M232.535 80C230.225 76 224.452 76 222.142 80L210.813 99.6235C208.503 103.624 211.39 108.624 216.009 108.624H225.308L227.339 114.715L229.369 108.624H238.668C243.287 108.624 246.174 103.624 243.864 99.6235L232.535 80Z" fill="white"/>
<path d="M222.142 80L223.008 80.5L223.008 80.5L222.142 80ZM232.535 80L231.669 80.5L231.669 80.5L232.535 80ZM210.813 99.6235L209.947 99.1235L209.947 99.1235L210.813 99.6235ZM225.308 108.624L226.257 108.307L226.029 107.624H225.308V108.624ZM227.339 114.715L226.39 115.031L227.339 117.877L228.287 115.031L227.339 114.715ZM229.369 108.624V107.624H228.648L228.42 108.307L229.369 108.624ZM243.864 99.6235L242.998 100.124L242.998 100.124L243.864 99.6235ZM223.008 80.5C224.933 77.1667 229.744 77.1667 231.669 80.5L233.401 79.5C230.706 74.8333 223.971 74.8333 221.276 79.5L223.008 80.5ZM211.679 100.124L223.008 80.5L221.276 79.5L209.947 99.1235L211.679 100.124ZM216.009 107.624C212.16 107.624 209.754 103.457 211.679 100.124L209.947 99.1235C207.252 103.79 210.62 109.624 216.009 109.624V107.624ZM225.308 107.624H216.009V109.624H225.308V107.624ZM228.287 114.399L226.257 108.307L224.359 108.94L226.39 115.031L228.287 114.399ZM228.42 108.307L226.39 114.399L228.287 115.031L230.318 108.94L228.42 108.307ZM238.668 107.624H229.369V109.624H238.668V107.624ZM242.998 100.124C244.923 103.457 242.517 107.624 238.668 107.624V109.624C244.057 109.624 247.425 103.79 244.73 99.1235L242.998 100.124ZM231.669 80.5L242.998 100.124L244.73 99.1235L233.401 79.5L231.669 80.5Z" fill="#ED3B45" mask="url(#path-27-inside-2)"/>
<path d="M226.043 87.371C226.019 86.6209 226.621 86 227.372 86C228.139 86 228.746 86.6471 228.699 87.4125L228.04 97.9579C228.012 98.3977 227.647 98.7402 227.207 98.7402C226.756 98.7402 226.387 98.3824 226.373 97.9319L226.043 87.371Z" fill="#ED3B45"/>
<circle cx="227.194" cy="101.129" r="0.796265" fill="#ED3B45"/>
<mask id="path-31-inside-3" fill="white">
<path fill-rule="evenodd" clip-rule="evenodd" d="M181.334 57C179.794 54.3333 175.945 54.3333 174.405 57L166.724 70.3044C165.185 72.9711 167.109 76.3044 170.188 76.3044H176.504L177.87 80.4014L179.235 76.3044H185.551C188.63 76.3044 190.555 72.9711 189.015 70.3044L181.334 57Z"/>
</mask>
<path fill-rule="evenodd" clip-rule="evenodd" d="M181.334 57C179.794 54.3333 175.945 54.3333 174.405 57L166.724 70.3044C165.185 72.9711 167.109 76.3044 170.188 76.3044H176.504L177.87 80.4014L179.235 76.3044H185.551C188.63 76.3044 190.555 72.9711 189.015 70.3044L181.334 57Z" fill="white"/>
<path d="M174.405 57L175.271 57.5V57.5L174.405 57ZM181.334 57L182.2 56.5V56.5L181.334 57ZM166.724 70.3044L167.59 70.8044L166.724 70.3044ZM176.504 76.3044L177.453 75.9882L177.225 75.3044H176.504V76.3044ZM177.87 80.4014L176.921 80.7176L177.87 83.5637L178.818 80.7176L177.87 80.4014ZM179.235 76.3044V75.3044H178.515L178.287 75.9882L179.235 76.3044ZM189.015 70.3044L189.881 69.8044L189.015 70.3044ZM175.271 57.5C176.426 55.5 179.313 55.5 180.468 57.5L182.2 56.5C180.275 53.1667 175.464 53.1667 173.539 56.5L175.271 57.5ZM167.59 70.8044L175.271 57.5L173.539 56.5L165.858 69.8044L167.59 70.8044ZM170.188 75.3044C167.879 75.3044 166.435 72.8044 167.59 70.8044L165.858 69.8044C163.934 73.1378 166.339 77.3044 170.188 77.3044V75.3044ZM176.504 75.3044H170.188V77.3044H176.504V75.3044ZM178.818 80.0852L177.453 75.9882L175.555 76.6207L176.921 80.7176L178.818 80.0852ZM178.287 75.9882L176.921 80.0852L178.818 80.7176L180.184 76.6207L178.287 75.9882ZM185.551 75.3044H179.235V77.3044H185.551V75.3044ZM188.149 70.8044C189.304 72.8044 187.86 75.3044 185.551 75.3044V77.3044C189.4 77.3044 191.805 73.1378 189.881 69.8044L188.149 70.8044ZM180.468 57.5L188.149 70.8044L189.881 69.8044L182.2 56.5L180.468 57.5Z" fill="#ED3B45" mask="url(#path-31-inside-3)"/>
<path fill-rule="evenodd" clip-rule="evenodd" d="M178.108 61C177.603 61 177.198 61.4176 177.214 61.9221L177.436 69.0251C177.445 69.328 177.694 69.5687 177.997 69.5687C178.293 69.5687 178.538 69.3383 178.557 69.0425L179 61.95C179.032 61.4352 178.623 61 178.108 61ZM177.988 71.7107C178.284 71.7107 178.524 71.471 178.524 71.1752C178.524 70.8794 178.284 70.6396 177.988 70.6396C177.693 70.6396 177.453 70.8794 177.453 71.1752C177.453 71.471 177.693 71.7107 177.988 71.7107Z" fill="#ED3B45"/>
<path d="M117.5 82.5L116 85.5H112.5" stroke="#189EE9"/>
<path d="M146.5 85.5V68.5L151.5 58.5V75.5L146.5 85.5Z" fill="white" stroke="#189EE9"/>
<path d="M106.5 58.5V58H106.217L106.071 58.2428L106.5 58.5ZM100.5 68.5L100.071 68.2428L100.5 69V68.5ZM115.5 68.5V69H115.79L115.934 68.7481L115.5 68.5ZM138.5 58.5H138V59H138.5V58.5ZM117.5 58.5V59H117.74L117.89 58.8123L117.5 58.5ZM123.5 51V50.5H123.26L123.11 50.6877L123.5 51ZM138.5 51H139V50.5H138.5V51ZM106.071 58.2428L100.071 68.2428L100.929 68.7572L106.929 58.7572L106.071 58.2428ZM100.5 69H115.5V68H100.5V69ZM115.934 68.7481L117.934 65.2481L117.066 64.7519L115.066 68.2519L115.934 68.7481ZM152 58H138.5V59H152V58ZM117.5 58H106.5V59H117.5V58ZM123.11 50.6877L117.11 58.1877L117.89 58.8123L123.89 51.3123L123.11 50.6877ZM139 58.5V51H138V58.5H139ZM138.5 50.5H123.5V51.5H138.5V50.5Z" fill="#189EE9"/>
<path d="M117.5 82.4996H133.5V68.4996L134.5 65.4996V56.5H117.5V82.4996Z" fill="#CEEAFA" stroke="#189EE9"/>
<rect x="100.5" y="68.5" width="15" height="17" fill="#CEEAFA" stroke="#189EE9"/>
<rect x="133.5" y="68.5" width="13" height="17" fill="#CEEAFA" stroke="#189EE9"/>
<path d="M123 49.5L117.5 56.5H134.5L138.5 49.5H123Z" fill="white"/>
<path d="M117.5 56.5L117.107 56.1911L117.5 57V56.5ZM123 49.5V49H122.757L122.607 49.1911L123 49.5ZM138.5 49.5L138.934 49.7481C139.023 49.5933 139.022 49.4032 138.932 49.249C138.843 49.0949 138.678 49 138.5 49V49.5ZM134.5 56.5V57H134.79L134.934 56.7481L134.5 56.5ZM117.893 56.8089L123.393 49.8089L122.607 49.1911L117.107 56.1911L117.893 56.8089ZM123 50H138.5V49H123V50ZM117.5 57H134.5V56H117.5V57ZM138.066 49.2519L134.066 56.2519L134.934 56.7481L138.934 49.7481L138.066 49.2519Z" fill="#189EE9"/>
<path d="M138.5 49.5V58.5" stroke="#189EE9"/>
<path d="M133.5 68L138.5 58" stroke="#189EE9"/>
<rect x="211.5" y="137.5" width="75" height="24" fill="white" stroke="#189EE9"/>
<path d="M205.5 127.5H280.5L286.5 137V138H212L205.5 127.5Z" fill="#CEEAFA"/>
<path d="M205.5 127.5V127C205.319 127 205.151 127.098 205.063 127.257C204.975 127.415 204.979 127.609 205.075 127.763L205.5 127.5ZM280.5 127.5L280.923 127.233L280.776 127H280.5V127.5ZM286.5 138V138.5H287V138H286.5ZM212 138L211.575 138.263L211.721 138.5H212V138ZM286.5 137H287V136.855L286.923 136.733L286.5 137ZM205.5 128H280.5V127H205.5V128ZM286.5 137.5H212V138.5H286.5V137.5ZM212.425 137.737L205.925 127.237L205.075 127.763L211.575 138.263L212.425 137.737ZM280.077 127.767L286.077 137.267L286.923 136.733L280.923 127.233L280.077 127.767ZM286 137V138H287V137H286Z" fill="#189EE9"/>
<path d="M276 125H256.5L259.5 129.5V135.5H279.5V129.5L276 125Z" fill="white"/>
<path d="M256.5 125V124.5C256.316 124.5 256.146 124.601 256.059 124.764C255.972 124.927 255.982 125.124 256.084 125.277L256.5 125ZM276 125L276.395 124.693L276.245 124.5H276V125ZM279.5 129.5H280V129.328L279.895 129.193L279.5 129.5ZM279.5 135.5V136H280V135.5H279.5ZM259.5 135.5H259C259 135.776 259.224 136 259.5 136V135.5ZM259.5 129.5H260V129.349L259.916 129.223L259.5 129.5ZM256.5 125.5H276V124.5H256.5V125.5ZM275.605 125.307L279.105 129.807L279.895 129.193L276.395 124.693L275.605 125.307ZM279 129.5V135.5H280V129.5H279ZM279.5 135H259.5V136H279.5V135ZM260 135.5V129.5H259V135.5H260ZM259.916 129.223L256.916 124.723L256.084 125.277L259.084 129.777L259.916 129.223Z" fill="#189EE9"/>
<path d="M205.5 150.5V127.5L211.5 137.5V161.5L205.5 150.5Z" fill="#CEEAFA"/>
<path d="M205.5 127.5L205.929 127.243C205.813 127.05 205.583 126.958 205.367 127.018C205.15 127.078 205 127.275 205 127.5H205.5ZM205.5 150.5H205V150.627L205.061 150.739L205.5 150.5ZM211.5 161.5L211.061 161.739L212 161.5H211.5ZM211.5 137.5H212V137.362L211.929 137.243L211.5 137.5ZM205 127.5V150.5H206V127.5H205ZM205.061 150.739L211.061 161.739L211.939 161.261L205.939 150.261L205.061 150.739ZM212 161.5V137.5H211V161.5H212ZM211.929 137.243L205.929 127.243L205.071 127.757L211.071 137.757L211.929 137.243Z" fill="#189EE9"/>
<path d="M256.5 131V125L259.5 129.5V135.5L256.5 131Z" fill="#CEEAFA"/>
<path d="M256.5 125L256.916 124.723C256.794 124.539 256.566 124.458 256.355 124.521C256.144 124.585 256 124.78 256 125H256.5ZM256.5 131H256V131.151L256.084 131.277L256.5 131ZM259.5 135.5L259.084 135.777C259.206 135.961 259.434 136.042 259.645 135.979C259.856 135.915 260 135.72 260 135.5H259.5ZM259.5 129.5H260V129.349L259.916 129.223L259.5 129.5ZM256 125V131H257V125H256ZM256.084 131.277L259.084 135.777L259.916 135.223L256.916 130.723L256.084 131.277ZM260 135.5V129.5H259V135.5H260ZM259.916 129.223L256.916 124.723L256.084 125.277L259.084 129.777L259.916 129.223Z" fill="#189EE9"/>
<path d="M259.5 129.5H279.5" stroke="#189EE9"/>
</svg>
