<svg width="160" height="59" viewBox="0 0 160 59" fill="none" xmlns="http://www.w3.org/2000/svg">
<path fill-rule="evenodd" clip-rule="evenodd" d="M31.8189 7.92989L55.0221 22.3217C55.4072 22.5487 55.7227 22.8768 55.9345 23.2704C56.1463 23.664 56.2463 24.1081 56.2236 24.5545C56.2009 25.0009 56.0564 25.4326 55.8058 25.8027C55.5551 26.1728 55.2079 26.4672 54.8018 26.654L36.5183 37.9374L31.6231 41.0213C30.9027 41.4155 30.0947 41.6221 29.2734 41.6221C28.4522 41.6221 27.6442 41.4155 26.9238 41.0213L3.7206 26.6295C3.33204 26.4198 3.00745 26.1088 2.78122 25.7297C2.55499 25.3505 2.43555 24.9172 2.43555 24.4756C2.43555 24.0341 2.55499 23.6007 2.78122 23.2216C3.00745 22.8424 3.33204 22.5315 3.7206 22.3217L22.0286 11.0139L27.1196 7.92989C27.84 7.53571 28.648 7.3291 29.4693 7.3291C30.2905 7.3291 31.0985 7.53571 31.8189 7.92989ZM29.3224 11.151C28.8928 11.151 28.4707 11.2641 28.0986 11.4789H28.1965C28.048 11.5581 27.8885 11.6443 27.7194 11.7357C27.0523 12.0962 26.236 12.5374 25.3573 12.9475L40.8506 22.7378L44.8401 20.2902C39.9205 17.1084 33.5078 13.0454 30.5462 11.4789C30.1741 11.2641 29.752 11.151 29.3224 11.151ZM29.3224 37.8002C29.752 37.8002 30.1741 37.6871 30.5462 37.4723C30.6554 37.4141 30.7705 37.3521 30.891 37.2872C31.581 36.9155 32.4477 36.4486 33.3854 36.0527L17.9411 26.2624L13.9515 28.7099C14.4251 29.0106 14.9126 29.3205 15.4095 29.6363C20.0496 32.5856 25.5119 36.0574 28.0986 37.4723C28.4707 37.6871 28.8928 37.8002 29.3224 37.8002ZM21.3922 23.9371L36.8855 33.7275C43.3226 29.7379 51.3997 24.4756 51.3997 24.4756L48.2423 22.4931L36.4938 29.8358L33.0427 27.6575L37.3995 25.0386L21.8572 15.2482C15.4201 19.2133 7.34303 24.4756 7.34303 24.4756L10.5494 26.4826L22.2733 19.1399L25.7244 21.2937L21.3922 23.9371Z" fill="white"/>
<path opacity="0.6" fill-rule="evenodd" clip-rule="evenodd" d="M53.2591 31.0356L55.0214 32.1126C55.4053 32.331 55.723 32.6493 55.9408 33.0336C56.1585 33.4179 56.2682 33.8541 56.2582 34.2957C56.2481 34.7373 56.1188 35.168 55.8838 35.5421C55.6488 35.9161 55.317 36.2196 54.9235 36.4203L31.6224 50.8122C30.902 51.2064 30.0939 51.413 29.2727 51.413C28.4515 51.413 27.6435 51.2064 26.923 50.8122L3.62196 36.4203C3.23341 36.2106 2.90882 35.8997 2.68259 35.5205C2.45636 35.1413 2.33691 34.708 2.33691 34.2665C2.33691 33.8249 2.45636 33.3916 2.68259 33.0124C2.90882 32.6332 3.23341 32.3223 3.62196 32.1126L5.38423 31.0356L8.95771 33.214L7.3423 34.2665C7.3423 34.2665 23.0558 44.5463 28.1958 47.2632C28.5679 47.478 28.9899 47.5911 29.4196 47.5911C29.8492 47.5911 30.2713 47.478 30.6434 47.2632C35.7833 44.5463 51.3989 34.2665 51.3989 34.2665L49.6856 33.214L53.2591 31.0356Z" fill="white"/>
<path d="M66.085 18.4448L66.0906 16.5215L74.7816 16.5473L74.776 18.4706L71.4986 18.4609L71.4755 26.8641L69.3441 26.8578L69.3693 18.4546L66.085 18.4448Z" fill="white"/>
<path d="M75.6904 26.8763L75.715 18.7362L77.702 18.7425L77.8422 20.1471C78.4218 19.0559 79.4332 18.5163 80.8673 18.5205C80.9557 18.5183 81.0441 18.5239 81.1315 18.5372L81.1252 20.7957C80.8173 20.7295 80.5031 20.6965 80.1881 20.6972C79.1704 20.6972 78.3195 21.0742 77.9725 21.9273L77.9578 26.8839L75.6904 26.8763Z" fill="white"/>
<path d="M82.6354 22.165C83.3019 21.7279 84.1199 21.5227 85.0885 21.5255C85.9057 21.5255 86.5702 21.6337 87.0748 21.8431V21.5478C87.0748 20.7254 86.5253 20.3087 85.42 20.3059C84.2741 20.3024 83.2879 20.5069 82.4616 20.9111L82.4672 18.9564C83.526 18.6308 84.6295 18.4725 85.7375 18.4873C88.0771 18.4943 89.2436 19.6096 89.2371 21.8334L89.2224 26.9171L87.5956 26.9122L87.3909 25.7861C87.0047 26.2748 86.5709 26.6134 86.0978 26.804C85.6247 26.9945 84.9988 27.0881 84.2537 27.0832C83.4288 27.0832 82.7728 26.8151 82.2913 26.279C81.8097 25.7428 81.5693 25.1222 81.5693 24.3801C81.5742 23.3825 81.9688 22.6097 82.6354 22.165ZM85.0934 25.4363C85.4902 25.4334 85.8797 25.3298 86.2252 25.1354C86.5706 24.9409 86.8606 24.662 87.0678 24.3249V23.3992C86.676 23.1507 86.1798 23.0216 85.5784 23.0195C84.3925 23.016 83.8304 23.4383 83.8262 24.3312C83.829 24.9693 84.3161 25.4343 85.0934 25.4363Z" fill="white"/>
<path d="M91.418 26.9232L91.4425 18.7832L93.4457 18.7894L93.4414 20.1298C93.9496 19.054 94.9133 18.5144 96.3389 18.5186C97.2123 18.5186 97.9167 18.7783 98.4353 19.2984C98.954 19.8185 99.2168 20.5696 99.214 21.5358L99.1979 26.9463L96.9305 26.9393L96.9452 21.9519C96.9452 20.747 96.4217 20.3379 95.4923 20.3351C94.715 20.3812 94.1206 20.7623 93.7022 21.487L93.6854 26.9323L91.418 26.9232Z" fill="white"/>
<path d="M104.575 18.543C105.648 18.543 106.601 18.7643 107.441 19.1895L107.436 21.0046C107.196 20.8761 106.763 20.7477 106.147 20.6178C105.594 20.5027 105.03 20.4396 104.465 20.4293C104.073 20.4293 103.881 20.4356 103.624 20.5229C103.367 20.6101 103.239 20.8168 103.238 21.1442C103.237 21.4716 103.412 21.679 103.799 21.8318C104.185 21.9847 104.503 22.0657 105.087 22.1865C105.131 22.1919 105.174 22.2001 105.216 22.2109C105.48 22.2675 105.706 22.3163 105.872 22.3568C106.039 22.3973 106.24 22.4539 106.457 22.5258C106.808 22.6289 107.133 22.8068 107.409 23.0473C107.808 23.3921 108.023 23.8955 108.021 24.6376C108.021 25.4278 107.68 26.0569 106.997 26.5337C106.315 27.0105 105.433 27.2471 104.334 27.2444C103.124 27.2444 102.035 26.9742 101.083 26.4527L101.089 24.6013C101.505 24.8016 102.049 24.979 102.714 25.1486C103.296 25.3075 103.896 25.395 104.499 25.409C105.229 25.409 105.734 25.1298 105.736 24.6467C105.74 23.3063 100.961 24.5685 100.97 21.2329C100.975 19.5057 102.267 18.536 104.575 18.543Z" fill="white"/>
<path d="M109.587 30.0815L109.621 18.8369L111.575 18.8425L111.668 20.12C112.272 19.084 113.203 18.5681 114.477 18.5723C115.751 18.5765 116.758 19.0414 117.373 19.8094C117.988 20.5773 118.295 21.5916 118.295 22.7729C118.295 23.9778 117.911 25.0864 117.243 25.9144C116.575 26.7424 115.501 27.2736 114.23 27.2701C113.26 27.2701 112.468 26.9295 111.87 26.2495L111.858 30.0891L109.587 30.0815ZM111.854 24.6613C112.406 25.1178 113.103 25.351 113.936 25.3538C115.378 25.3343 115.974 24.1949 115.978 22.8141C115.983 21.3857 115.304 20.4579 113.95 20.4537C113.556 20.456 113.166 20.5249 112.796 20.6576C112.453 20.7761 112.137 20.9596 111.865 21.1979L111.854 24.6613Z" fill="white"/>
<path d="M120.595 22.2768C121.262 21.8398 122.08 21.6345 123.048 21.6373C123.865 21.6373 124.531 21.7455 125.035 21.9543V21.6597C125.035 20.8373 124.486 20.4205 123.38 20.4177C122.234 20.4177 121.248 20.6188 120.421 21.023L120.428 19.0682C121.486 18.7425 122.59 18.5842 123.698 18.5991C126.038 18.6061 127.204 19.7214 127.197 21.9452L127.182 27.0289L125.555 27.024L125.351 25.8979C124.964 26.3866 124.531 26.7252 124.057 26.9158C123.584 27.1064 122.959 27.1999 122.214 27.195C121.389 27.195 120.732 26.9276 120.252 26.3915C119.771 25.8553 119.526 25.2319 119.528 24.4898C119.534 23.4943 119.929 22.7215 120.595 22.2768ZM123.053 25.5482C123.45 25.5453 123.839 25.4418 124.185 25.2475C124.53 25.0532 124.82 24.7744 125.028 24.4375V23.5118C124.636 23.2632 124.14 23.1341 123.539 23.132C122.353 23.132 121.791 23.5509 121.787 24.4437C121.789 25.0811 122.277 25.5454 123.053 25.5482Z" fill="white"/>
<path d="M129.379 27.0354L129.403 18.8954L131.39 18.9009L131.53 20.3062C132.11 19.2144 133.121 18.6747 134.556 18.6789C134.644 18.6775 134.732 18.6831 134.82 18.6957L134.813 20.9541C134.505 20.8883 134.191 20.8553 133.876 20.8557C132.858 20.8557 132.008 21.2334 131.661 22.0865L131.646 27.0431L129.379 27.0354Z" fill="white"/>
<path d="M139.602 18.6626C140.98 18.6668 142.045 19.1408 142.643 19.9192C143.242 20.6976 143.519 21.638 143.516 22.7466C143.511 23.1476 143.478 23.5477 143.416 23.9439L137.503 23.9264C137.668 25.012 138.708 25.5098 140.191 25.5147C140.871 25.5147 141.754 25.3513 142.82 25.019L142.815 26.7831C142.133 27.1643 141.163 27.353 139.905 27.3493C138.326 27.3444 137.086 26.8606 136.359 26.0536C135.632 25.2466 135.259 24.1987 135.263 22.954C135.271 20.0226 137.367 18.6556 139.602 18.6626ZM141.37 22.4422C141.37 21.1738 140.686 20.5175 139.596 20.514C138.347 20.514 137.527 21.2184 137.428 22.4311L141.37 22.4422Z" fill="white"/>
<path d="M145.37 27.0831L145.395 18.943L147.397 18.9486L147.394 20.2897C147.901 19.2139 148.865 18.6736 150.29 18.6778C151.164 18.6778 151.868 18.9382 152.387 19.4583C152.907 19.9784 153.169 20.7295 153.166 21.6922L153.15 27.1033L150.883 27.0964L150.897 22.1083C150.897 20.9034 150.373 20.495 149.444 20.4922C148.666 20.5375 148.073 20.9194 147.654 21.6441L147.638 27.0894L145.37 27.0831Z" fill="white"/>
<path d="M155.245 17.4241L157.499 16.689L157.492 18.9795L160 18.9872L159.995 20.7185L157.487 20.7115L157.476 24.3417C157.482 25.0196 157.842 25.2926 158.619 25.2947C159.1 25.2947 159.484 25.2095 159.782 25.035L159.776 26.9101C159.285 27.1957 158.645 27.3381 157.844 27.3353C156.089 27.3302 155.216 26.4603 155.224 24.7257L155.245 17.4241Z" fill="white"/>
<g opacity="0.85">
<path opacity="0.6" d="M66.7451 35.3832V34.084H74.0848V35.3832H71.1411V43.1197H69.6896V35.3832H66.7451Z" fill="white"/>
<path opacity="0.6" d="M75.0453 36.7308C75.75 36.1009 76.6637 35.7528 77.6106 35.7534C78.7888 35.7534 79.7069 36.1374 80.2396 36.7797C80.7723 37.4219 81.0316 38.2317 81.0316 39.1889C81.0316 39.4472 81.0106 39.7892 80.9685 40.2151H75.4588C75.564 40.9202 75.9425 41.4508 76.4611 41.73C76.9798 42.0093 77.5405 42.1349 78.186 42.1349C78.9661 42.1468 79.7399 41.9946 80.4569 41.6881V42.9036C80.0924 43.0724 79.7052 43.1877 79.3074 43.2456C78.8512 43.3223 78.3894 43.362 77.9267 43.3643C76.5733 43.3643 75.5009 42.9454 74.8631 42.2396C74.2253 41.5338 73.9092 40.62 73.9092 39.5309C73.9092 38.3574 74.3493 37.3528 75.0453 36.7308ZM79.5668 39.0841C79.5668 38.4205 79.3845 37.9036 79.0201 37.5336C78.6556 37.1636 78.186 36.9821 77.6106 36.9821C76.3139 36.9821 75.5079 37.771 75.4308 39.0841H79.5668Z" fill="white"/>
<path opacity="0.6" d="M83.2889 36.8006C83.9828 36.1025 84.9222 35.7534 86.1072 35.7534C86.8291 35.7534 87.4599 35.8581 87.9996 36.0676V37.2963C87.4443 37.1087 86.8617 37.0143 86.2754 37.017C84.6493 37.017 83.7796 37.8757 83.7796 39.5449C83.7796 40.3617 84.0041 40.99 84.4531 41.4298C84.9017 41.8696 85.4974 42.093 86.2333 42.093C86.8692 42.1043 87.5002 41.9806 88.0844 41.73V42.9803C87.4809 43.2386 86.794 43.3643 86.0301 43.3643C83.8987 43.4062 82.2236 41.9185 82.2453 39.6007C82.2446 38.4342 82.5951 37.4987 83.2889 36.8006Z" fill="white"/>
<path opacity="0.6" d="M89.5498 43.12V33.4434H91.0308V37.0603C91.5915 36.1737 92.4963 35.7548 93.4839 35.7548C94.9207 35.7548 96.141 36.5297 96.141 38.3169V43.1214H94.6474V38.7141C94.6474 37.5406 94.0026 36.9961 93.0984 36.9961C92.1662 36.9961 91.4723 37.4638 91.0301 38.3993V43.12H89.5498Z" fill="white"/>
<path opacity="0.6" d="M98.0605 43.12V35.9992H99.2247V37.2558C99.8345 36.2436 100.802 35.7549 101.924 35.7549C103.361 35.7549 104.664 36.5298 104.664 38.317V43.1214H103.171V38.7142C103.171 37.5407 102.527 36.9961 101.622 36.9961C100.69 36.9961 99.9957 37.4639 99.5541 38.3994V43.12H98.0605Z" fill="white"/>
<path opacity="0.6" d="M106.87 36.8355C107.558 36.1164 108.482 35.7534 109.647 35.7534C110.888 35.7604 111.904 36.2072 112.514 36.8983C113.124 37.5895 113.446 38.504 113.446 39.517C113.446 40.6409 113.103 41.5625 112.423 42.2822C111.743 43.002 110.811 43.3643 109.647 43.3643C108.406 43.3573 107.383 42.9105 106.773 42.2117C106.163 41.5129 105.841 40.613 105.841 39.6007C105.841 38.4745 106.184 37.5527 106.87 36.8355ZM107.908 41.3035C108.259 41.8131 108.869 42.1342 109.647 42.1342C111.372 42.1342 111.911 40.7869 111.911 39.628C111.911 38.2939 111.245 36.9814 109.647 36.9814C108.827 36.9814 108.196 37.3025 107.859 37.8052C107.523 38.3078 107.376 38.867 107.376 39.4884C107.377 40.1802 107.559 40.8015 107.91 41.3042L107.908 41.3035Z" fill="white"/>
<path opacity="0.6" d="M114.669 43.12V33.4434H116.163V43.12H114.669Z" fill="white"/>
<path opacity="0.6" d="M118.37 36.8355C119.057 36.1164 119.982 35.7534 121.145 35.7534C122.387 35.7604 123.403 36.2072 124.013 36.8983C124.623 37.5895 124.945 38.504 124.945 39.517C124.945 40.6409 124.601 41.5625 123.922 42.2822C123.242 43.002 122.31 43.3643 121.145 43.3643C119.905 43.3573 118.882 42.9105 118.272 42.2117C117.662 41.5129 117.339 40.613 117.339 39.6007C117.339 38.4745 117.683 37.5527 118.37 36.8355ZM119.407 41.3035C119.758 41.8131 120.367 42.1342 121.145 42.1342C122.87 42.1342 123.41 40.7869 123.41 39.628C123.41 38.2939 122.744 36.9814 121.145 36.9814C120.325 36.9814 119.695 37.3025 119.358 37.8052C119.022 38.3078 118.875 38.867 118.875 39.4884C118.875 40.1802 119.057 40.8015 119.407 41.3042V41.3035Z" fill="white"/>
<path opacity="0.6" d="M127.104 36.6819C127.711 36.0934 128.522 35.7608 129.369 35.7534C130.554 35.7534 131.486 36.1095 132.166 36.8146L132.271 35.9978H133.463V41.7161C133.463 44.8792 131.577 45.8922 129.495 45.8922C128.514 45.8922 127.673 45.7105 126.972 45.347V44.1043C127.697 44.4389 128.486 44.6151 129.285 44.6209C131.093 44.6209 131.997 43.8109 131.997 42.1908V41.9604C131.626 42.4707 131.226 42.8198 130.792 43.0013C130.357 43.1828 129.839 43.2805 129.243 43.2805C128.577 43.2805 127.995 43.113 127.504 42.7709C127.014 42.4373 126.631 41.969 126.404 41.4228C126.158 40.8713 126.039 40.243 126.039 39.5449C126.039 38.3155 126.46 37.2893 127.104 36.6819ZM129.698 42.0442C130.574 42.0442 131.443 41.4996 131.997 40.4315V37.9881C131.698 37.6717 131.337 37.4193 130.937 37.2465C130.537 37.0736 130.106 36.9839 129.67 36.9828C128.274 36.9828 127.576 37.851 127.573 39.5875C127.574 40.8713 128.17 42.0442 129.698 42.0442H129.698Z" fill="white"/>
<path opacity="0.6" d="M134.452 35.998H136.114L138.126 40.8297L140.11 35.998H141.603L137.165 45.8359H135.63L137.425 42.3453L134.452 35.998Z" fill="white"/>
</g>
</svg>
